<?xml version="1.0" encoding="utf-8"?>
<!-- Generator: Adobe Illustrator 22.1.0, SVG Export Plug-In . SVG Version: 6.00 Build 0)  -->
<svg version="1.1" id="Capa_1" xmlns="http://www.w3.org/2000/svg" xmlns:xlink="http://www.w3.org/1999/xlink" x="0px" y="0px"
	 viewBox="0 0 200 200" style="enable-background:new 0 0 200 200;" xml:space="preserve">
<style type="text/css">
	.st0{fill:none;stroke:#FFFAFA;stroke-width:2;stroke-linecap:round;stroke-linejoin:round;stroke-miterlimit:10;}
</style>
<title>tzompantli_1</title>
<g id="Capa_2_1_">
	<path class="st0" d="M64.5,80c0-5,4-9,9-9l0,0c5,0,9,4,9,9l0,0c0,5-4,9-9,9l0,0C68.5,89,64.5,85,64.5,80L64.5,80"/>
	<path class="st0" d="M78,152c0-12.4,10.1-22.5,22.5-22.5l0,0"/>
	<path class="st0" d="M78,152c0-9.9-8.1-18-18-18l0,0c-9.9,0-18,8.1-18,18l0,0c0,9.9,8.1,18,18,18l0,0C69.9,170,78,161.9,78,152
		L78,152c0,12.4,10.1,22.5,22.5,22.5l0,0"/>
	<path class="st0" d="M37.5,147.5c15,6,36,9,63,9"/>
	<path class="st0" d="M136.5,80c0-5-4-9-9-9l0,0c-5,0-9,4-9,9l0,0c0,5,4,9,9,9l0,0C132.5,89,136.5,85,136.5,80L136.5,80"/>
	<path class="st0" d="M100.5,80c-15,21-19.5,34.5-13.5,40.5l0,0c9,6,13.5,4.5,13.5-4.5"/>
	<path class="st0" d="M100.5,80c15,21,19.5,34.5,13.5,40.5l0,0c-9,6-13.5,4.5-13.5-4.5"/>
	<path class="st0" d="M28.5,107c0,21,24,31.5,72,31.5"/>
	<path class="st0" d="M28.5,107c-3-24-1.5-45,4.5-63"/>
	<path class="st0" d="M168,44c-9-15-31.5-22.5-67.5-22.5"/>
	<path class="st0" d="M172.5,107c0,21-24,31.5-72,31.5"/>
	<path class="st0" d="M172.5,107c3-24,1.5-45-4.5-63"/>
	<path class="st0" d="M33,44c9-15,31.5-22.5,67.5-22.5"/>
	<path class="st0" d="M123,152c0-12.4-10.1-22.5-22.5-22.5l0,0"/>
	<path class="st0" d="M123,152c0-9.9,8.1-18,18-18l0,0c9.9,0,18,8.1,18,18l0,0c0,9.9-8.1,18-18,18l0,0C131.1,170,123,161.9,123,152
		L123,152c0,12.4-10.1,22.5-22.5,22.5l0,0"/>
	<path class="st0" d="M163.5,147.5c-15,6-36,9-63,9"/>
</g>
</svg>
