<?xml version="1.0" encoding="utf-8"?>
<!-- Generator: Adobe Illustrator 22.1.0, SVG Export Plug-In . SVG Version: 6.00 Build 0)  -->
<svg version="1.1" id="Capa_3" xmlns="http://www.w3.org/2000/svg" xmlns:xlink="http://www.w3.org/1999/xlink" x="0px" y="0px"
	 viewBox="0 0 400 400" style="enable-background:new 0 0 400 400;" xml:space="preserve">
<style type="text/css">
	.st0{fill:#7FFFD4;}
	.st1{fill:none;stroke:#7FFFD4;stroke-width:4;stroke-linecap:round;stroke-linejoin:round;stroke-miterlimit:10;}
</style>
<title>tzontli_3</title>
<g id="Capa_5">
	<path class="st0" d="M130,162.1c11,0,20-9,20-20l0,0c0,11,9,20,20,20l0,0c-11,0-20,9-20,20l0,0C150,171,141,162.1,130,162.1
		L130,162.1"/>
	<path class="st1" d="M204,158.1c-33.3,53.3-43.3,83.3-30,90"/>
	<path class="st1" d="M234,248.1c-20,13.3-30,3.3-30-30"/>
	<path class="st1" d="M44.1,118c0-49.7,71.6-90,159.9-90"/>
	<path class="st1" d="M44.1,118v80l0,0c0,49.7,44.7,89.9,100,89.9l0,0c33.1,0,60-4.5,60-10l0,0"/>
	<path class="st1" d="M64.1,308c40,13.3,86.6,20,139.9,20"/>
	<path class="st1" d="M174,328c0-26.7,10-40,30-40"/>
	<path class="st1" d="M234,328c0,26.7-10,40-30,40"/>
	<path class="st1" d="M234,328c0-20,6.7-30,20-30"/>
	<path class="st1" d="M154,298.1c-13.3,0-20,10-20,30"/>
	<path class="st1" d="M274,328c0,20-6.7,30-20,30"/>
	<path class="st1" d="M154,358c13.3,0,20-10,20-30"/>
	<path class="st1" d="M94,318c0-13.3,6.7-20,20-20"/>
	<path class="st1" d="M294,298.1c-13.3,0-20,10-20,30"/>
	<path class="st1" d="M313.9,318c0,20-6.7,30-20,30"/>
	<path class="st1" d="M114.1,348c13.3,0,20-6.7,20-20"/>
	<path class="st1" d="M140,172.1c-16.6,0-30,13.4-30,30l0,0l0,0C126.6,202.1,140,188.6,140,172.1L140,172.1L140,172.1"/>
	<path class="st1" d="M248,172.1c-16.6,0-30,13.4-30,30l0,0l0,0C234.6,202.1,248,188.6,248,172.1L248,172.1L248,172.1"/>
	<path class="st1" d="M140,152.1c0-16.6-13.4-30-30-30l0,0l0,0C110,138.6,123.4,152.1,140,152.1L140,152.1L140,152.1"/>
	<path class="st1" d="M160,152.1c16.6,0,30-13.4,30-30l0,0l0,0C173.4,122.1,160,135.5,160,152.1L160,152.1L160,152.1"/>
	<path class="st1" d="M228,162.1c0-16.6,13.4-30,30-30s30,13.4,30,30l0,0c0,16.6-13.4,30-30,30S228,178.6,228,162.1"/>
	<path class="st0" d="M278,162.1c-11,0-20-9-20-20l0,0c0,11-9,20-20,20l0,0c11,0,20,9,20,20l0,0C258,171,267,162.1,278,162.1
		L278,162.1"/>
	<path class="st1" d="M204,158.1c33.3,53.3,43.3,83.3,30,90"/>
	<path class="st1" d="M174,248.1c20,13.3,30,3.3,30-30"/>
	<path class="st1" d="M363.9,118c0-49.7-71.6-90-159.9-90l0,0"/>
	<path class="st1" d="M363.9,118v80l0,0c0,49.7-44.7,89.9-99.9,89.9l0,0c-33.1,0-60-4.5-60-10l0,0"/>
	<path class="st1" d="M343.9,308c-40,13.3-86.6,20-139.9,20"/>
	<path class="st1" d="M234,328c0-26.7-10-40-30-40"/>
	<path class="st1" d="M174,328c0,26.7,10,40,30,40"/>
	<path class="st1" d="M174,328c0-20-6.7-30-20-30"/>
	<path class="st1" d="M254,298.1c13.3,0,20,10,20,30"/>
	<path class="st1" d="M134,328c0,20,6.7,30,20,30"/>
	<path class="st1" d="M254,358c-13.3,0-20-10-20-30"/>
	<path class="st1" d="M313.9,318c0-13.3-6.7-20-20-20"/>
	<path class="st1" d="M114.1,298.1c13.3,0,20,10,20,30"/>
	<path class="st1" d="M94,318c0,20,6.7,30,20,30"/>
	<path class="st1" d="M294,348c-13.3,0-20-6.7-20-20"/>
	<path class="st1" d="M268,172.1c16.6,0,30,13.4,30,30l0,0l0,0C281.4,202.1,268,188.6,268,172.1L268,172.1L268,172.1"/>
	<path class="st1" d="M160,172.1c16.6,0,30,13.4,30,30l0,0l0,0C173.4,202.1,160,188.6,160,172.1L160,172.1L160,172.1"/>
	<path class="st1" d="M268,152.1c0-16.6,13.4-30,30-30l0,0l0,0C298,138.6,284.6,152.1,268,152.1L268,152.1L268,152.1"/>
	<path class="st1" d="M248,152.1c-16.6,0-30-13.4-30-30l0,0l0,0C234.6,122.1,248,135.5,248,152.1L248,152.1L248,152.1"/>
	<path class="st1" d="M180,162.1c0-16.6-13.4-30-30-30l0,0l0,0c-16.6,0-30,13.4-30,30s13.4,30,30,30S180,178.6,180,162.1"/>
</g>
</svg>
