<?xml version="1.0" encoding="utf-8"?>
<!-- Generator: Adobe Illustrator 22.1.0, SVG Export Plug-In . SVG Version: 6.00 Build 0)  -->
<svg version="1.1" xmlns="http://www.w3.org/2000/svg" xmlns:xlink="http://www.w3.org/1999/xlink" x="0px" y="0px"
	 viewBox="0 0 400 400" style="enable-background:new 0 0 400 400;" xml:space="preserve">
<style type="text/css">
	.st0{fill:url(#SVGID_1_);}
	.st1{fill:none;stroke:#000000;stroke-width:8;stroke-linecap:round;stroke-linejoin:round;stroke-miterlimit:10;}
	.st2{fill:none;stroke:#000000;stroke-width:5;stroke-linecap:round;stroke-linejoin:round;stroke-miterlimit:10;}
</style>
<g id="Capa_2">
	<linearGradient id="SVGID_1_" gradientUnits="userSpaceOnUse" x1="204.6569" y1="288.3127" x2="204.6569" y2="26">
		<stop  offset="0" style="stop-color:#EC7600"/>
		<stop  offset="1" style="stop-color:#963A46"/>
	</linearGradient>
	<path class="st0" d="M43.3,128v72.9l2.1,16.7l6.2,16.7l8.3,14.6l16.7,16.7l14.6,10.4l18.7,8.3l25,4.2h29.1l18.7-2.1l12.5-2.1
		l8.3-4.2l10.4,4.2l29.1,4.2h18.7h16.7l22.9-6.2l20.8-8.3l18.7-16.7l14.6-18.7l6.2-16.7l4.2-12.5v-39.6v-58.3l-4.2-14.6l-8.3-16.7
		L341,67.6l-20.8-14.6l-22.9-10.4l-31.2-10.4l-31.2-4.2L197.4,26l-31.2,2.1L137,34.3l-27.1,8.3L89.1,53.1L68.3,67.6L53.7,84.3
		l-10.4,22.9V128z M130,162.1c11,0,20-9,20-20l0,0c0,11,9,20,20,20l0,0c-11,0-20,9-20,20l0,0C150,171,141,162.1,130,162.1L130,162.1
		 M234,248.1c-20,13.3-30,3.3-30-30c0,33.3-10,43.3-30,30v0c-13.3-6.7-3.3-36.7,30-90C237.3,211.4,247.3,241.4,234,248.1 M268,170.1
		c16.6,0,30,13.4,30,30l0,0l0,0C281.4,200.1,268,186.6,268,170.1L268,170.1L268,170.1 M160,172.1c16.6,0,30,13.4,30,30l0,0l0,0
		C173.4,202.1,160,188.6,160,172.1L160,172.1L160,172.1 M268,152.1c0-16.6,13.4-30,30-30l0,0l0,0C298,138.6,284.6,152.1,268,152.1
		L268,152.1L268,152.1 M248,153.1c-16.6,0-30-13.4-30-30l0,0l0,0C234.6,123.1,248,136.5,248,153.1L248,153.1L248,153.1 M249,171.1
		c0,16.6-13.4,30-30,30l0,0l0,0C219,184.5,232.4,171.1,249,171.1L249,171.1L249,171.1 M140,172.1c0,16.6-13.4,30-30,30l0,0l0,0
		C110,185.5,123.4,172.1,140,172.1L140,172.1L140,172.1 M109,123.1c16.6,0,30,13.4,30,30l0,0l0,0C122.4,153.1,109,139.6,109,123.1
		L109,123.1L109,123.1 M160,152.1c0-16.6,13.4-30,30-30l0,0l0,0C190,138.6,176.6,152.1,160,152.1L160,152.1L160,152.1 M237,162.1
		c11,0,20-9,20-20l0,0c0,11,9,20,20,20l0,0c-11,0-20,9-20,20l0,0C257,171,248,162.1,237,162.1L237,162.1"/>
</g>
<g id="Capa_3">
	<title>tzontli_3</title>
	<g id="Capa_5">
		<path class="st1" d="M44.1,118c0-49.7,71.6-90,159.9-90"/>
		<path class="st1" d="M44.1,118v80l0,0c0,49.7,44.7,89.9,100,89.9l0,0c33.1,0,60-4.5,60-10l0,0"/>
		<path class="st1" d="M64.1,308c40,13.3,86.6,20,139.9,20"/>
		<path class="st1" d="M174,328c0-26.7,10-40,30-40"/>
		<path class="st1" d="M234,328c0,26.7-10,40-30,40"/>
		<path class="st1" d="M234,328c0-20,6.7-30,20-30"/>
		<path class="st1" d="M154,298.1c-13.3,0-20,10-20,30"/>
		<path class="st1" d="M274,328c0,20-6.7,30-20,30"/>
		<path class="st1" d="M154,358c13.3,0,20-10,20-30"/>
		<path class="st1" d="M94,318c0-13.3,6.7-20,20-20"/>
		<path class="st1" d="M294,298.1c-13.3,0-20,10-20,30"/>
		<path class="st1" d="M313.9,318c0,20-6.7,30-20,30"/>
		<path class="st1" d="M114.1,348c13.3,0,20-6.7,20-20"/>
		<path class="st1" d="M363.9,118c0-49.7-71.6-90-159.9-90l0,0"/>
		<path class="st1" d="M363.9,118v80l0,0c0,49.7-44.7,89.9-99.9,89.9l0,0c-33.1,0-60-4.5-60-10l0,0"/>
		<path class="st1" d="M343.9,308c-40,13.3-86.6,20-139.9,20"/>
		<path class="st1" d="M234,328c0-26.7-10-40-30-40"/>
		<path class="st1" d="M174,328c0,26.7,10,40,30,40"/>
		<path class="st1" d="M174,328c0-20-6.7-30-20-30"/>
		<path class="st1" d="M254,298.1c13.3,0,20,10,20,30"/>
		<path class="st1" d="M134,328c0,20,6.7,30,20,30"/>
		<path class="st1" d="M254,358c-13.3,0-20-10-20-30"/>
		<path class="st1" d="M313.9,318c0-13.3-6.7-20-20-20"/>
		<path class="st1" d="M114.1,298.1c13.3,0,20,10,20,30"/>
		<path class="st1" d="M94,318c0,20,6.7,30,20,30"/>
		<path class="st1" d="M294,348c-13.3,0-20-6.7-20-20"/>
	</g>
	<path class="st2" d="M234,248.1c-20,13.3-30,3.3-30-30c0,33.3-10,43.3-30,30v0c-13.3-6.7-3.3-36.7,30-90
		C237.3,211.4,247.3,241.4,234,248.1"/>
	<path class="st2" d="M130,162.1c11,0,20-9,20-20l0,0c0,11,9,20,20,20l0,0c-11,0-20,9-20,20l0,0C150,171,141,162.1,130,162.1
		L130,162.1"/>
	<path class="st2" d="M268,170.1c16.6,0,30,13.4,30,30l0,0l0,0C281.4,200.1,268,186.6,268,170.1L268,170.1L268,170.1"/>
	<path class="st2" d="M160,172.1c16.6,0,30,13.4,30,30l0,0l0,0C173.4,202.1,160,188.6,160,172.1L160,172.1L160,172.1"/>
	<path class="st2" d="M268,152.1c0-16.6,13.4-30,30-30l0,0l0,0C298,138.6,284.6,152.1,268,152.1L268,152.1L268,152.1"/>
	<path class="st2" d="M248,153.1c-16.6,0-30-13.4-30-30l0,0l0,0C234.6,123.1,248,136.5,248,153.1L248,153.1L248,153.1"/>
	<path class="st2" d="M249,171.1c0,16.6-13.4,30-30,30l0,0l0,0C219,184.5,232.4,171.1,249,171.1L249,171.1L249,171.1"/>
	<path class="st2" d="M140,172.1c0,16.6-13.4,30-30,30l0,0l0,0C110,185.5,123.4,172.1,140,172.1L140,172.1L140,172.1"/>
	<path class="st2" d="M109,123.1c16.6,0,30,13.4,30,30l0,0l0,0C122.4,153.1,109,139.6,109,123.1L109,123.1L109,123.1"/>
	<path class="st2" d="M160,152.1c0-16.6,13.4-30,30-30l0,0l0,0C190,138.6,176.6,152.1,160,152.1L160,152.1L160,152.1"/>
	<path class="st2" d="M237,162.1c11,0,20-9,20-20l0,0c0,11,9,20,20,20l0,0c-11,0-20,9-20,20l0,0C257,171,248,162.1,237,162.1
		L237,162.1"/>
</g>
</svg>
