<?xml version="1.0" encoding="utf-8"?>
<!-- Generator: Adobe Illustrator 22.1.0, SVG Export Plug-In . SVG Version: 6.00 Build 0)  -->
<svg version="1.1" xmlns="http://www.w3.org/2000/svg" xmlns:xlink="http://www.w3.org/1999/xlink" x="0px" y="0px"
	 viewBox="0 0 400 400" style="enable-background:new 0 0 400 400;" xml:space="preserve">
<style type="text/css">
	.st0{fill:url(#SVGID_1_);}
	.st1{fill:none;stroke:#000000;stroke-width:6;stroke-linecap:round;stroke-linejoin:round;stroke-miterlimit:10;}
</style>
<g id="Capa_2">
	<linearGradient id="SVGID_1_" gradientUnits="userSpaceOnUse" x1="203.355" y1="287.69" x2="203.355" y2="25">
		<stop  offset="0" style="stop-color:#073642"/>
		<stop  offset="1" style="stop-color:#AEAFA9"/>
	</linearGradient>
	<path class="st0" d="M203.4,277.6L203.4,277.6c0,5.6,27.2,10.1,60.6,10.1l0,0c55.8,0,101-40.7,101-90.9l0,0v-80.8
		C365,65.7,292.6,25,203.3,25l0,0c-89.3,0-161.6,40.7-161.6,90.9v80.8l0,0c0,50.2,45.2,90.9,101,90.9l0,0
		C176.2,287.7,203.3,283.1,203.4,277.6L203.4,277.6 M213.5,156.4c33.7-33.7,67.3-33.7,101,0C280.8,190,247.1,190,213.5,156.4
		 M233.6,247.3c-20.2,13.5-30.3,3.4-30.3-30.3c0,33.7-10.1,43.8-30.3,30.3l0,0c-13.4-6.7-3.3-37,30.3-90.9v0
		C237,210.2,247.1,240.6,233.6,247.3 M92.5,156.4c33.7-33.7,67.3-33.7,101,0C159.8,190,126.1,190,92.5,156.4"/>
</g>
<g id="Capa_4">
	<title>tzontli_4</title>
	<g id="Capa_8">
		<path class="st1" d="M203.3,156.3c-33.6,53.9-43.8,84.2-30.3,90.9 M233.6,247.3c-20.2,13.5-30.3,3.4-30.3-30.3 M213.5,156.4
			c33.7-33.7,67.3-33.7,101,0C280.8,190,247.1,190,213.5,156.4 M203.3,156.4c33.7,53.9,43.8,84.2,30.3,90.9 M173,247.3
			c20.2,13.5,30.3,3.4,30.3-30.3 M193.2,156.4c-33.7-33.7-67.4-33.7-101,0C125.9,190,159.6,190,193.2,156.4"/>
		<path d="M284.2,156.3c-11.1,0-20.2-9.1-20.2-20.2l0,0c0,11.2-9,20.2-20.2,20.2c0,0,0,0,0,0l0,0c11.2,0,20.2,9,20.2,20.2
			c0,0,0,0,0,0l0,0l0,0C264,165.4,273,156.3,284.2,156.3C284.2,156.3,284.2,156.3,284.2,156.3L284.2,156.3"/>
		<path d="M122.5,156.3c11.2,0,20.2-9,20.2-20.2l0,0c0,11.2,9,20.2,20.2,20.2c0,0,0,0,0,0l0,0c-11.2,0-20.2,9-20.2,20.2l0,0
			C142.7,165.4,133.7,156.3,122.5,156.3C122.5,156.3,122.5,156.3,122.5,156.3L122.5,156.3"/>
		<path class="st1" d="M61.9,307.9c40.4,13.5,87.6,20.2,141.4,20.2"/>
		<path class="st1" d="M173,328.1c0-26.9,10.1-40.4,30.3-40.4"/>
		<path class="st1" d="M233.7,328.1c0,26.9-10.1,40.4-30.3,40.4"/>
		<path class="st1" d="M233.7,328.1c0-20.2,6.7-30.3,20.2-30.3"/>
		<path class="st1" d="M152.8,297.7c-13.5,0-20.2,10.1-20.2,30.3"/>
		<path class="st1" d="M274.1,328.1c0,20.2-6.7,30.3-20.2,30.3"/>
		<path class="st1" d="M152.8,358.4c13.5,0,20.2-10.1,20.2-30.3"/>
		<path class="st1" d="M92.3,318c0-13.5,6.7-20.3,20.2-20.3"/>
		<path class="st1" d="M294.2,297.7c-13.5,0-20.2,10.1-20.2,30.3"/>
		<path class="st1" d="M314.5,318c0,20.2-6.7,30.3-20.2,30.3"/>
		<path class="st1" d="M112.4,348.3c13.5,0,20.2-6.7,20.2-20.2"/>
		<path class="st1" d="M344.8,307.9c-40.4,13.5-87.6,20.2-141.4,20.2"/>
		<path class="st1" d="M233.7,328.1c0-26.9-10.1-40.4-30.3-40.4"/>
		<path class="st1" d="M173,328.1c0,26.9,10.1,40.4,30.3,40.4"/>
		<path class="st1" d="M173,328.1c0-20.2-6.7-30.3-20.2-30.3"/>
		<path class="st1" d="M253.9,297.7c13.5,0,20.2,10.1,20.2,30.3"/>
		<path class="st1" d="M132.6,328.1c0,20.2,6.7,30.3,20.2,30.3"/>
		<path class="st1" d="M253.9,358.4c-13.5,0-20.2-10.1-20.2-30.3"/>
		<path class="st1" d="M314.5,318c0-13.5-6.7-20.2-20.2-20.2"/>
		<path class="st1" d="M112.4,297.7c13.5,0,20.2,10.1,20.2,30.3"/>
		<path class="st1" d="M92.3,318c0,20.2,6.7,30.3,20.2,30.3"/>
		<path class="st1" d="M294.2,348.3c-13.5,0-20.2-6.7-20.2-20.2"/>
		<path class="st1" d="M41.7,115.9c0-50.2,72.4-90.9,161.6-90.9"/>
		<path class="st1" d="M41.7,115.9v80.8l0,0c0,50.2,45.2,90.9,101,90.9l0,0c33.5,0,60.6-4.5,60.6-10.1l0,0"/>
		<path class="st1" d="M365,115.9C365,65.7,292.6,25,203.3,25l0,0"/>
		<path class="st1" d="M365,115.9v80.8l0,0c0,50.2-45.2,90.9-101,90.9l0,0c-33.5,0-60.6-4.5-60.6-10.1l0,0"/>
	</g>
</g>
</svg>
