<?xml version="1.0" encoding="utf-8"?>
<!-- Generator: Adobe Illustrator 22.1.0, SVG Export Plug-In . SVG Version: 6.00 Build 0)  -->
<svg version="1.1" xmlns="http://www.w3.org/2000/svg" xmlns:xlink="http://www.w3.org/1999/xlink" x="0px" y="0px"
	 viewBox="0 0 400 400" style="enable-background:new 0 0 400 400;" xml:space="preserve">
<style type="text/css">
	.st0{fill:none;stroke:#6ADEDC;stroke-width:40;stroke-linecap:round;stroke-linejoin:round;stroke-miterlimit:10;}
	.st1{fill:none;stroke:#6ADEDC;stroke-width:63;stroke-linecap:round;stroke-linejoin:round;stroke-miterlimit:10;}
	.st2{fill:url(#SVGID_1_);}
	.st3{fill:url(#SVGID_2_);}
	.st4{fill:none;stroke:#000000;stroke-width:8;stroke-linecap:round;stroke-linejoin:round;stroke-miterlimit:10;}
</style>
<g id="Capa_3">
	<path class="st0" d="M148.2,123.7"/>
	<path class="st1" d="M157.6,256.4"/>
	<path class="st1" d="M251.7,256.4"/>
	<path class="st1" d="M204.6,218.8"/>
	<linearGradient id="SVGID_1_" gradientUnits="userSpaceOnUse" x1="204.6381" y1="369.8483" x2="204.6381" y2="328.5405">
		<stop  offset="0" style="stop-color:#FFCD22"/>
		<stop  offset="1" style="stop-color:#6ADEDC"/>
	</linearGradient>
	<path class="st2" d="M132.3,338.9l6.2-10.3l2.1,8.3l4.1,10.3l6.2,2.1l10.3,2.1c0,0,14.5-6.2,14.5-18.6c0,0,4.1,26.9,28.9,26.9
		s26.9-20.7,26.9-20.7l2.1-6.2l2.1,8.3c0,0,8.3,12.4,16.5,10.3c0,0,18.6-2.1,18.6-20.7l4.1,6.2l2.1,2.1c0,0-6.2,26.9-35.1,31h-70.2
		c0,0-26.9-4.1-33-18.6L132.3,338.9z"/>
	<linearGradient id="SVGID_2_" gradientUnits="userSpaceOnUse" x1="204.3703" y1="314.0828" x2="204.3703" y2="22.6605">
		<stop  offset="0" style="stop-color:#FFCD22"/>
		<stop  offset="1" style="stop-color:#6ADEDC"/>
	</linearGradient>
	<path class="st3" d="M53.9,144.7c0,0-3.2-115,144.6-121.9c67.1-3.1,112.6,29.9,135.3,58.9c21.9,27.9,20.7,64,20.7,64l7.2,3.1
		l8.3,12.4l4.1,18.6l-4.1,16.5l-8.3,10.3L334.8,217l2.1,8.3c0,0,18.6,53.7-35.1,70.2h-6.2l-6.2-2.1l-8.3,2.1l-8.3,8.3l-2.1,10.3
		l-4.1-12.4l-8.3-6.2l-8.3-2.1l-6.2,2.1l-6.2,4.1l-6.2,14.5l-2.1-12.4l-6.2-10.3l-8.3-4.1l-8.3-2.1h-8.3l-8.3,4.1l-8.3,6.2l-4.1,8.3
		l-2.1,10.3l-2.1-10.3l-4.1-6.2l-6.2-2.1l-8.3-2.1l-8.3,4.1l-4.1,6.2l-4.1,8.3l-2.1-6.2l-4.1-8.3l-10.3-4.1l-10.3,2.1h-4.1
		l-10.3-4.1l-12.4-8.3l-8.3-8.3l-6.2-12.4l-2.1-10.3v-12.4l4.1-22.7c0,0-43-5.7-37.2-43.4C39.4,146.8,53.9,144.7,53.9,144.7z
		 M148,134c-15.5,0-28,12.5-28,28s12.5,28,28,28s28-12.5,28-28S163.5,134,148,134z M262,134c-15.5,0-28,12.5-28,28s12.5,28,28,28
		s28-12.5,28-28S277.5,134,262,134z"/>
</g>
<g id="Capa_1">
	<title>tzontli_7</title>
	<g id="Capa_8">
		<g id="Capa_15">
			<path class="st4" d="M72.9,218.8c-18.8,62.7,25.1,90.9,131.7,84.7 M129.4,284.6c-6.3,56.5,9.4,84.7,47,84.7h28.2 M35.3,181.2
				c0,25.1,25.1,37.7,75.3,37.6 M35.3,181.1c0-25.1,9.4-37.6,28.2-37.6 M54.1,143.5c0-67.6,67.4-122.3,150.6-122.3 M148.2,124.7
				c0,20.8,16.8,37.6,37.6,37.6l0,0l0,0C185.8,141.6,169,124.7,148.2,124.7C148.2,124.7,148.2,124.7,148.2,124.7L148.2,124.7
				 M261.1,124.7c20.8,0,37.6,16.8,37.6,37.6l0,0l0,0 M204.6,218.8c-26,0-47,16.9-47,37.6l0,0C183.6,256.4,204.6,239.5,204.6,218.8z
				 M82.3,303.5c25.1,18.8,65.9,28.2,122.3,28.2 M336.4,218.8c18.8,62.7-25.1,90.9-131.7,84.7 M279.9,284.6
				c6.3,56.5-9.4,84.7-47,84.7h-28.3 M261.1,134.1L261.1,134.1c-15.6,0.5-27.8,13.6-27.3,29.1c0.5,14.9,12.4,26.8,27.3,27.3l0,0
				 M261.1,134.1c15.6,0,28.2,12.6,28.2,28.2l0,0c0,15.6-12.6,28.2-28.2,28.2l0,0 M374,181.1c0,25.1-25.1,37.7-75.3,37.6 M374,181.1
				c0-25.1-9.4-37.6-28.2-37.6 M355.2,143.5c0-67.6-67.4-122.3-150.5-122.3 M261.1,124.7c0,20.8-16.9,37.6-37.6,37.6l0,0
				C223.5,141.6,240.3,124.7,261.1,124.7L261.1,124.7 M148.2,124.7c-20.8,0-37.6,16.8-37.7,37.6c0,0,0,0,0,0l0,0 M204.6,218.8
				c26,0,47.1,16.9,47.1,37.6l0,0C225.7,256.4,204.6,239.5,204.6,218.8L204.6,218.8z M327,303.5c-25.1,18.8-65.9,28.2-122.3,28.2
				 M148.2,134.1L148.2,134.1c15.6,0,28.2,12.7,28.2,28.2l0,0c0,15.6-12.6,28.2-28.2,28.2l0,0 M148.2,134.1
				c-15.6-0.7-28.8,11.4-29.5,26.9c-0.7,15.6,11.4,28.8,26.9,29.5c0.3,0,0.7,0,1,0c0.5,0,1,0,1.5,0"/>
			<path class="st4" d="M176.4,322.3c0-25.1,9.4-37.6,28.2-37.6 M232.9,322.3c0,25.1-9.4,37.6-28.2,37.6 M232.9,322.3
				c0-18.8,6.3-28.2,18.8-28.2 M157.6,294.1c-12.5,0-18.8,9.4-18.8,28.2 M270.5,322.3c0,18.8-6.3,28.2-18.8,28.2 M157.6,350.6
				c12.6,0,18.8-9.4,18.8-28.2 M101.1,313c0-12.6,6.3-18.8,18.8-18.8 M289.3,294.2c-12.5,0-18.8,9.4-18.8,28.2 M308.1,313
				c0,18.8-6.3,28.2-18.8,28.2 M120,341.2c12.5,0,18.8-6.3,18.8-18.8 M232.9,322.4c0-25.1-9.4-37.6-28.2-37.6 M176.4,322.3
				c0,25.1,9.4,37.6,28.2,37.6 M176.4,322.3c0-18.8-6.3-28.2-18.8-28.2 M251.7,294.1c12.5,0,18.8,9.4,18.8,28.2 M138.8,322.3
				c0,18.8,6.3,28.2,18.8,28.2 M251.7,350.6c-12.6,0-18.8-9.4-18.8-28.2 M308.1,313c0-12.6-6.3-18.8-18.8-18.8 M120,294.2
				c12.5,0,18.8,9.4,18.8,28.2 M101.1,313c0,18.8,6.3,28.2,18.8,28.2 M289.3,341.2c-12.5,0-18.8-6.3-18.8-18.8"/>
		</g>
	</g>
</g>
<g id="Capa_2">
</g>
</svg>
