<?xml version="1.0" encoding="utf-8"?>
<!-- Generator: Adobe Illustrator 22.1.0, SVG Export Plug-In . SVG Version: 6.00 Build 0)  -->
<svg version="1.1" id="Capa_6" xmlns="http://www.w3.org/2000/svg" xmlns:xlink="http://www.w3.org/1999/xlink" x="0px" y="0px"
	 viewBox="0 0 400 400" style="enable-background:new 0 0 400 400;" xml:space="preserve">
<style type="text/css">
	.st0{fill:none;stroke:#FFCD22;stroke-width:4;stroke-linecap:round;stroke-linejoin:round;stroke-miterlimit:10;}
</style>
<title>tzontli_6</title>
<g id="Capa_13">
	<path class="st0" d="M204.1,182.9L204.1,182.9L164.8,242l39.4,29.6 M95.8,173c27.2,0,49.2-22,49.2-49.2l0,0 M95.8,173
		c0-27.2,22.1-49.2,49.2-49.2l0,0 M66.2,311c39.4,13.1,85.4,19.7,138,19.7 M46.6,123.8c0-59.9,70.6-108.4,157.6-108.4 M46.6,123.8
		c-6.6,131.3,46,200.3,157.6,207 M204.2,281.5c0-21.8,17.6-39.4,39.4-39.4l0,0l0,0 M125.3,291.3c-6.6,59.1,9.9,88.7,49.3,88.7h29.6
		 M145,123.8L145,123.8 M204.1,182.9L204.1,182.9l39.4,59.1l-39.4,29.6 M312.5,173c-27.2,0-49.3-22-49.3-49.2l0,0 M312.5,173
		c0-27.2-22.1-49.2-49.3-49.2l0,0 M342.1,311c-39.4,13.1-85.4,19.7-137.9,19.7 M361.8,123.7c0-59.9-70.6-108.4-157.6-108.4
		 M361.8,123.8c6.6,131.3-46,200.3-157.6,207 M204.2,281.5c0.1-21.8-17.5-39.5-39.3-39.5c0,0,0,0,0,0 M283.1,291.3
		c6.6,59.1-9.8,88.7-49.3,88.7h-29.6 M263.4,123.8L263.4,123.8"/>
	<path class="st0" d="M174.6,330.7c0-26.3,9.9-39.4,29.6-39.4 M233.7,330.7c0,26.3-9.9,39.4-29.6,39.4 M233.7,330.7
		c0-19.7,6.6-29.6,19.7-29.6 M154.9,301.1c-13.1,0-19.7,9.9-19.7,29.6 M273.1,330.7c0,19.7-6.6,29.6-19.7,29.6 M154.9,360.3
		c13.1,0,19.7-9.9,19.7-29.6 M95.8,320.8c0-13.1,6.6-19.7,19.7-19.7 M292.9,301.1c-13.1,0-19.7,9.9-19.7,29.6 M312.5,320.8
		c0,19.7-6.6,29.6-19.7,29.6 M115.4,350.4c13.2,0,19.8-6.6,19.8-19.7 M233.8,330.7c0-26.3-9.9-39.4-29.6-39.4 M174.7,330.7
		c0,26.3,9.9,39.4,29.6,39.4 M174.7,330.7c0-19.7-6.6-29.6-19.7-29.6 M253.5,301.1c13.1,0,19.7,9.9,19.7,29.6 M135.2,330.7
		c0,19.7,6.6,29.6,19.7,29.6 M253.5,360.3c-13.1,0-19.7-9.9-19.7-29.6 M312.5,320.8c0-13.1-6.6-19.7-19.7-19.7 M115.4,301.1
		c13.1,0,19.7,9.9,19.7,29.6 M95.8,320.8c0,19.7,6.6,29.6,19.7,29.6 M292.9,350.4c-13.1,0-19.7-6.6-19.7-19.7"/>
	<path class="st0" d="M164.8,163.2c0-10.9-8.7-19.7-19.6-19.8H145c-10.9,0-19.7,8.8-19.7,19.7c0,0,0,0,0,0l0,0
		c0,10.9,8.8,19.7,19.7,19.7c0,0,0,0,0,0l0,0C155.9,182.9,164.7,174.1,164.8,163.2L164.8,163.2L164.8,163.2"/>
	<path class="st0" d="M243.6,163.2c0-10.9,8.8-19.7,19.6-19.8h0.1c10.9,0,19.7,8.8,19.7,19.7c0,0,0,0,0,0l0,0
		c0,10.9-8.8,19.7-19.7,19.7c0,0,0,0,0,0l0,0C252.4,182.9,243.6,174,243.6,163.2C243.6,163.1,243.6,163.1,243.6,163.2L243.6,163.2"
		/>
</g>
</svg>
