<?xml version="1.0" encoding="utf-8"?>
<!-- Generator: Adobe Illustrator 22.1.0, SVG Export Plug-In . SVG Version: 6.00 Build 0)  -->
<svg version="1.1" xmlns="http://www.w3.org/2000/svg" xmlns:xlink="http://www.w3.org/1999/xlink" x="0px" y="0px"
	 viewBox="0 0 400 400" style="enable-background:new 0 0 400 400;" xml:space="preserve">
<style type="text/css">
	.st0{fill:none;stroke:#000000;stroke-width:6;stroke-linecap:round;stroke-linejoin:round;stroke-miterlimit:10;}
	.st1{fill:url(#SVGID_1_);}
</style>
<g id="Capa_5">
	<title>tzontli_5</title>
	<path class="st0" d="M62.7,318.8c40.2,13.4,87.2,20.1,140.9,20 M42.7,127.6c0-61.1,72-110.7,160.9-110.7 M42.7,127.6
		c-6.6,134.1,47,204.5,160.9,211.2 M344.3,318.8c-40.2,13.4-87.1,20.1-140.7,20 M364.5,127.6c0-61.1-71.9-110.7-160.9-110.7
		 M364.5,127.6c6.6,134.1-47,204.5-160.9,211.2"/>
	<linearGradient id="SVGID_1_" gradientUnits="userSpaceOnUse" x1="203.2643" y1="338.5" x2="203.2643" y2="16.0865">
		<stop  offset="1.164363e-03" style="stop-color:#EB3F48"/>
		<stop  offset="0.1023" style="stop-color:#E5413F"/>
		<stop  offset="0.4259" style="stop-color:#D74729"/>
		<stop  offset="0.732" style="stop-color:#CE4A1B"/>
		<stop  offset="1" style="stop-color:#CB4B16"/>
	</linearGradient>
	<path class="st1" d="M365.5,148c0,3.3,0.7,38.1-6.5,69.5c-5.7,24.7-19.6,47.5-20,50c-4.1,24.2-42.6,39.7-60.5,55
		c-17.9,15.3-54.6,16-80,16c-3.2,0-23.8,0-40.5-5.5c-11.7-3.8-21.9-11.1-24-11.5C92.5,313,61.6,257.4,47.5,208
		c-5.7-19.8-8.4-66.1-5-87c1.4-8.4,16.2-46.5,28.5-54c15.6-9.5,40-40.5,71.5-39.5c10.6,0.3,32.8-14,42.5-11
		c19.1,5.9,79-2.5,91.5,12.5c6.3,7.5,45.2,19,62.5,39C362.8,95.5,365.5,133.5,365.5,148z M243.9,167.8L243.9,167.8
		C243.9,167.8,243.9,167.9,243.9,167.8c0,11.2,9.1,20.2,20.2,20.2l0,0c11.1-0.1,20-9.1,20-20.2l0,0c0-11-9-20-20-20l0,0
		c-0.1,0-0.2,0-0.2,0C252.8,147.8,243.8,156.8,243.9,167.8 M122.9,167.8L122.9,167.8C122.9,167.8,122.9,167.9,122.9,167.8
		c0,11.2,9.1,20.2,20.2,20.2l0,0c11.1-0.1,20-9.1,20-20.2l0,0c0-11-9-20-20-20l0,0c-0.1,0-0.2,0-0.2,0
		C131.8,147.8,122.8,156.8,122.9,167.8"/>
</g>
<g id="Capa_2">
	<g id="Capa_11_1_">
		<path class="st0" d="M62.7,318.8c40.2,13.4,87.2,20.1,140.9,20 M42.7,127.6c0-61.1,72-110.7,160.9-110.7 M42.7,127.6
			c-6.6,134.1,47,204.5,160.9,211.2 M344.3,318.8c-40.2,13.4-87.1,20.1-140.7,20 M364.5,127.6c0-61.1-71.9-110.7-160.9-110.7
			 M364.5,127.6c6.6,134.1-47,204.5-160.9,211.2"/>
		<path class="st0" d="M173.4,338.8c0-26.8,10-40.2,30.2-40.2 M233.8,338.8c0,26.8-10,40.2-30.2,40.2 M233.8,338.8
			c0-20,6.6-30.2,20-30.2 M153.4,308.7c-13.4,0-20,10-20,30.2 M274.1,338.8c0,20.2-6.6,30.2-20,30.2 M153.4,369
			c13.4,0,20-10,20-30.2 M92.9,328.8c0-13.4,6.6-20,20-20 M294.1,308.8c-13.4,0-20,10-20,30.2 M314.3,328.8c0,20-6.8,30.2-20.2,30.2
			 M113.1,359c13.4,0,20.2-6.8,20.2-20.2 M233.9,338.8c0-26.8-10-40.2-30.2-40.2 M173.4,338.8c0,26.8,10,40.2,30.2,40.2
			 M173.4,338.8c0-20-6.6-30.2-20-30.2 M253.9,308.8c13.4,0,20,10,20,30.2 M133.2,338.8c0,20.2,6.6,30.2,20,30.2 M253.9,369
			c-13.4,0-20-10-20-30.2 M314.3,328.8c0-13.4-6.8-20-20.2-20 M113.1,308.8c13.4,0,20.2,10,20.2,30.2 M92.9,328.8
			c0,20,6.6,30.2,20,30.2 M294.1,359c-13.4,0-20-6.8-20-20.2"/>
		<path class="st0" d="M163.4,167.8c0-11-9-20-20-20l0,0c-11.1,0-20.1,8.9-20.2,20l0,0c0,11.2,9,20.2,20.2,20.2c0,0,0,0,0,0l0,0
			C154.5,188,163.4,178.9,163.4,167.8L163.4,167.8"/>
		<path class="st0" d="M243.9,167.8c0-11,9-20,20-20c0.1,0,0.2,0,0.2,0l0,0c11,0,20,9,20,20l0,0c0,11.1-8.9,20.1-20,20.2l0,0
			C252.9,188.1,243.9,179,243.9,167.8C243.9,167.9,243.9,167.8,243.9,167.8L243.9,167.8"/>
		<path class="st0" d="M82.9,167.8c0-33.3,27-60.3,60.3-60.3s60.4,27,60.4,60.3"/>
		<path class="st0" d="M324.3,167.8c0-33.2-26.9-60.2-60.1-60.2c0,0-0.1,0-0.1,0c-33.2,0-60.5,27-60.5,60.2"/>
		<polyline class="st0" points="203.6,188.1 203.6,188.1 163.4,248.3 203.6,278.5 		"/>
		<path class="st0" d="M203.6,288.5c0.1-22.2,18-40.2,40.2-40.2"/>
		<polyline class="st0" points="203.6,188.1 203.6,188.1 243.9,248.3 203.6,278.5 		"/>
		<path class="st0" d="M203.6,288.5c-0.1-22.2-18-40.2-40.2-40.2"/>
	</g>
</g>
</svg>
