<?xml version="1.0" encoding="utf-8"?>
<!-- Generator: Adobe Illustrator 22.1.0, SVG Export Plug-In . SVG Version: 6.00 Build 0)  -->
<svg version="1.1" id="Capa_1" xmlns="http://www.w3.org/2000/svg" xmlns:xlink="http://www.w3.org/1999/xlink" x="0px" y="0px"
	 viewBox="0 0 400 400" style="enable-background:new 0 0 400 400;" xml:space="preserve">
<style type="text/css">
	.st0{fill:url(#SVGID_1_);}
	.st1{fill:url(#SVGID_2_);}
	.st2{fill:none;stroke:#000000;stroke-width:8;stroke-linecap:round;stroke-linejoin:round;}
</style>
<title>tzontli_8</title>
<g id="Capa_5">
	
		<linearGradient id="SVGID_1_" gradientUnits="userSpaceOnUse" x1="202.46" y1="19.1" x2="202.46" y2="130.98" gradientTransform="matrix(1 0 0 -1 0 400)">
		<stop  offset="0" style="stop-color:#72DEC2"/>
		<stop  offset="0.13" style="stop-color:#7ADCBB"/>
		<stop  offset="0.33" style="stop-color:#90D5A7"/>
		<stop  offset="0.58" style="stop-color:#B4CB88"/>
		<stop  offset="0.86" style="stop-color:#E5BD5C"/>
		<stop  offset="1" style="stop-color:#FFB545"/>
	</linearGradient>
	<polyline class="st0" points="100.8,380.9 304.2,380.9 294.4,329 283.8,269 283.8,269 120.6,269.9 100.8,380.9 	"/>
	
		<linearGradient id="SVGID_2_" gradientUnits="userSpaceOnUse" x1="202.245" y1="109.88" x2="202.245" y2="374.32" gradientTransform="matrix(1 0 0 -1 0 400)">
		<stop  offset="0" style="stop-color:#72DEC2"/>
		<stop  offset="0.11" style="stop-color:#8DD6AA"/>
		<stop  offset="0.3" style="stop-color:#B6CA86"/>
		<stop  offset="0.49" style="stop-color:#D6C16A"/>
		<stop  offset="0.68" style="stop-color:#ECBA55"/>
		<stop  offset="0.85" style="stop-color:#FAB649"/>
		<stop  offset="1" style="stop-color:#FFB545"/>
	</linearGradient>
	<path class="st1" d="M202.3,25.7c-89.9,0-162.7,41-162.7,91.5v81.4l0,0c0,50.6,45.5,91.5,101.7,91.5l0,0c33.7,0,61-4.5,61-10.2l0,0
		c0,5.6,27.3,10.2,61,10.2l0,0c56.2,0,101.7-41,101.7-91.5l0,0v-81.4C364.9,66.7,292.1,25.7,202.3,25.7L202.3,25.7z M110.7,157.9
		c0.6-16.8,14.8-30,31.6-29.4c16,0.6,28.8,13.4,29.4,29.4l0,0c0,16.9-13.7,30.5-30.5,30.5c0,0,0,0,0,0l0,0
		C124.4,188.4,110.7,174.8,110.7,157.9 M232.8,249.4c-20.3,13.6-30.5,3.4-30.5-30.5c0,33.9-10.2,44.1-30.5,30.5
		c-13.6-6.8-3.4-37.3,30.5-91.5C236.2,212.2,246.3,242.7,232.8,249.4L232.8,249.4z M232.7,157.9c0.6-16.8,14.8-30,31.6-29.4
		c16,0.6,28.8,13.4,29.4,29.4l0,0c0,16.9-13.7,30.5-30.5,30.5c0,0,0,0,0,0l0,0C246.3,188.4,232.7,174.8,232.7,157.9"/>
</g>
<g id="Capa_3">
	<path class="st2" d="M202.3,157.9c-33.9,54.3-44.1,84.8-30.5,91.5 M232.8,249.4c-20.3,13.6-30.5,3.4-30.5-30.5 M39.5,117.2
		c0-50.6,72.8-91.5,162.7-91.5 M39.5,117.2v81.4l0,0c0,50.6,45.5,91.5,101.7,91.5l0,0c33.7,0,61-4.5,61-10.2l0,0 M59.9,310.5
		c40.7,13.6,88.1,20.3,142.4,20.3 M171.8,330.8c0-27.1,10.2-40.7,30.5-40.7 M232.8,330.8c0,27.1-10.2,40.7-30.5,40.7 M232.8,330.8
		c0-20.3,6.8-30.5,20.3-30.5 M151.4,300.3c-13.6,0-20.3,10.2-20.3,30.5 M273.5,330.8c0,20.3-6.8,30.5-20.3,30.5 M151.4,361.3
		c13.6,0,20.4-10.2,20.4-30.5 M90.4,320.6c0-13.6,6.8-20.3,20.3-20.3 M293.8,300.3c-13.6,0-20.3,10.2-20.3,30.5 M314.1,320.6
		c0,20.4-6.8,30.5-20.4,30.5 M110.7,351.1c13.6,0,20.3-6.8,20.3-20.4 M131.1,157.9L131.1,157.9c0-5.6,4.6-10.2,10.2-10.2l0,0
		c5.6,0,10.2,4.6,10.2,10.2l0,0c0,5.6-4.6,10.2-10.2,10.2l0,0C135.6,168.1,131.1,163.5,131.1,157.9L131.1,157.9 M120.9,269.8
		L120.9,269.8l-20.3,111.9H304 M110.7,157.9c0.6-16.8,14.8-30,31.6-29.4c16,0.6,28.8,13.4,29.4,29.4l0,0c0,16.9-13.7,30.5-30.5,30.5
		c0,0,0,0,0,0l0,0C124.4,188.4,110.7,174.8,110.7,157.9 M222.6,157.9c0,28.1,27.3,50.9,61,50.9l0,0
		C283.6,180.7,256.3,157.9,222.6,157.9 M100.6,127.4c27.1-27.1,54.2-27.1,81.4,0 M202.3,157.9c33.9,54.3,44.1,84.8,30.5,91.5
		 M171.8,249.4c20.3,13.6,30.5,3.4,30.5-30.5 M365,117.2c0-50.6-72.9-91.5-162.7-91.5l0,0 M365,117.2v81.4l0,0
		c0,50.6-45.5,91.5-101.7,91.5l0,0c-33.7,0-61-4.5-61-10.2l0,0 M344.7,310.5c-40.7,13.6-88.1,20.3-142.4,20.3 M232.8,330.8
		c0-27.1-10.2-40.7-30.5-40.7 M171.8,330.8c0,27.1,10.2,40.7,30.5,40.7 M171.8,330.8c0-20.3-6.8-30.5-20.4-30.5 M253.1,300.3
		c13.6,0,20.3,10.2,20.3,30.5 M131.1,330.8c0,20.3,6.8,30.5,20.3,30.5 M253.1,361.3c-13.6,0-20.3-10.2-20.3-30.5 M314.1,320.6
		c0-13.6-6.8-20.3-20.4-20.3 M110.7,300.3c13.6,0,20.3,10.2,20.3,30.5 M90.4,320.6c0,20.4,6.8,30.5,20.3,30.5 M293.8,351.1
		c-13.6,0-20.3-6.8-20.3-20.4 M273.5,157.9L273.5,157.9c0-5.6-4.6-10.2-10.2-10.2l0,0l0,0c-5.6,0-10.2,4.6-10.2,10.2l0,0
		c0,5.6,4.6,10.2,10.2,10.2l0,0C268.9,168.1,273.5,163.5,273.5,157.9C273.5,157.9,273.5,157.9,273.5,157.9L273.5,157.9 M283.6,269.8
		L283.6,269.8L304,381.7H100.6 M293.8,157.9c0-16.9-13.7-30.5-30.5-30.5l0,0l0,0c-16.8,0.4-30.2,14.4-29.7,31.3
		c0.4,16.2,13.5,29.3,29.7,29.7l0,0C280.1,188.4,293.8,174.7,293.8,157.9 M181.9,157.9c0,28.1-27.3,50.9-61,50.9l0,0
		C120.9,180.7,148.2,157.9,181.9,157.9 M304,127.4c-27.1-27.1-54.2-27.1-81.4,0 M304,127.4c-27.1,33.9-54.2,33.9-81.4,0"/>
	<path class="st2" d="M100.6,127.4c27.1,33.9,54.2,33.9,81.4,0"/>
</g>
</svg>
