<?xml version="1.0" encoding="utf-8"?>
<!-- Generator: Adobe Illustrator 22.1.0, SVG Export Plug-In . SVG Version: 6.00 Build 0)  -->
<svg version="1.1" id="Capa_2" xmlns="http://www.w3.org/2000/svg" xmlns:xlink="http://www.w3.org/1999/xlink" x="0px" y="0px"
	 viewBox="0 0 400 400" style="enable-background:new 0 0 400 400;" xml:space="preserve">
<style type="text/css">
	.st0{fill:#864146;}
	.st1{fill:none;stroke:#FFFFFF;stroke-width:5;stroke-linecap:round;stroke-linejoin:round;}
	.st2{fill:none;stroke:#000000;stroke-width:5;stroke-linecap:round;stroke-linejoin:round;}
	.st3{fill:none;stroke:#391D17;stroke-width:5;stroke-linecap:round;stroke-linejoin:round;}
</style>
<g id="Capa_3_1_">
	<polygon class="st0" points="60.7,79.7 75.5,62.7 96.8,49.9 120.1,39.3 149.8,33 188,30.8 251.7,33 298.4,43.6 330.2,58.4 
		349.3,79.7 355.7,107.2 359.9,134.8 359.9,162.4 359.9,196.4 357.8,213.4 356.8,227.2 345.1,245.2 336.6,253.7 311.1,266.4 
		264.4,277 207.1,279.2 154.1,277 118,270.7 92.5,264.3 69.2,251.6 54.3,230.3 52.2,211.2 49,157.1 53.2,112.6 	"/>
</g>
<g id="Capa_4">
	<path class="st1" d="M157.2,307.8c0-26.4,21.4-47.8,47.8-47.8l0,0"/>
	<path class="st1" d="M157.2,307.8c0-21.1-17.1-38.2-38.2-38.2l0,0c-21.1,0-38.2,17.1-38.2,38.2l0,0c0,21.1,17.1,38.2,38.2,38.2l0,0
		C140.1,346,157.2,328.9,157.2,307.8L157.2,307.8c0,26.4,21.4,47.8,47.8,47.8l0,0"/>
	<path class="st1" d="M71.3,298.3c31.8,12.7,76.4,19.1,133.7,19.1"/>
	<path class="st1" d="M71.3,250.5c-12.7,70,6.4,108.2,57.3,114.6"/>
	<path class="st1" d="M281.4,365.1c-50.9,6.4-76.4,3.2-76.4-9.6"/>
	<path d="M205,155c-31.8,44.6-41.4,73.2-28.7,86l0,0c19.1,12.7,28.7,9.6,28.7-9.6"/>
	<path d="M205,155c31.8,44.6,41.4,73.2,28.7,86l0,0c-19.1,12.7-28.7,9.6-28.7-9.6"/>
	<path class="st1" d="M252.8,307.8c0-26.4-21.4-47.8-47.8-47.8l0,0"/>
	<path class="st1" d="M252.8,307.8c0-21.1,17.1-38.2,38.2-38.2l0,0c21.1,0,38.2,17.1,38.2,38.2l0,0c0,21.1-17.1,38.2-38.2,38.2l0,0
		C269.9,346,252.8,328.9,252.8,307.8L252.8,307.8c0,26.4-21.4,47.8-47.8,47.8l0,0"/>
	<path class="st1" d="M338.7,298.3c-31.8,12.7-76.4,19.1-133.7,19.1"/>
	<path class="st1" d="M338.7,250.5c12.7,70-6.4,108.2-57.3,114.6"/>
	<path class="st1" d="M128.6,365.1c50.9,6.4,76.4,3.2,76.4-9.6"/>
	<path class="st2" d="M52.2,212.3c0,44.6,50.9,66.9,152.8,66.9"/>
	<path class="st2" d="M52.2,212.3c-6.4-50.9-3.2-95.5,9.6-133.7"/>
	<path class="st2" d="M348.3,78.6C329.2,46.8,281.4,30.8,205,30.8"/>
	<path class="st2" d="M357.8,212.3c0,44.6-50.9,66.9-152.8,66.9"/>
	<path class="st2" d="M357.8,212.3c6.4-50.9,3.2-95.5-9.6-133.7"/>
	<path class="st2" d="M61.7,78.6C80.8,46.8,128.6,30.8,205,30.8"/>
	<path d="M222.7,152.7c0-20.4,16.5-36.9,36.9-36.9c20.4,0,36.9,16.5,36.9,36.9c0,20.4-16.5,36.9-36.9,36.9c0,0,0,0,0,0l0,0
		C239.2,189.6,222.7,173.1,222.7,152.7L222.7,152.7"/>
	<path class="st1" d="M259.6,208.1c-30.6,0-55.4-24.8-55.4-55.4c0,0,0,0,0,0C234.8,152.7,259.6,177.5,259.6,208.1L259.6,208.1
		L259.6,208.1"/>
	<line class="st3" x1="204.3" y1="152.7" x2="204.3" y2="152.7"/>
	<path class="st1" d="M315,152.7L315,152.7c-30.6,0-55.4,24.8-55.4,55.4l0,0"/>
	<path class="st1" d="M315,152.7c0,30.6-24.8,55.4-55.4,55.4l0,0"/>
	<path class="st1" d="M204.3,134.3c0-25.5,24.8-46.1,55.4-46.1h46.2"/>
	<path d="M185.8,152.7c0-20.4-16.5-36.9-36.9-36.9c-20.4,0-36.9,16.5-36.9,36.9s16.5,36.9,36.9,36.9c0,0,0,0,0,0l0,0
		C169.3,189.6,185.8,173.1,185.8,152.7L185.8,152.7"/>
	<path class="st1" d="M148.9,208.1c30.6,0,55.3-24.8,55.3-55.4C173.7,152.7,148.9,177.5,148.9,208.1L148.9,208.1"/>
	<path class="st1" d="M93.6,152.7L93.6,152.7c30.6,0,55.4,24.8,55.4,55.4l0,0l0,0"/>
	<path class="st1" d="M93.6,152.7c0,30.6,24.8,55.4,55.4,55.4l0,0"/>
	<path class="st1" d="M204.3,134.3c0-25.5-24.8-46.1-55.3-46.1h-46.1"/>
</g>
</svg>
