<?xml version="1.0" encoding="utf-8"?>
<!-- Generator: Adobe Illustrator 22.1.0, SVG Export Plug-In . SVG Version: 6.00 Build 0)  -->
<svg version="1.1" xmlns="http://www.w3.org/2000/svg" xmlns:xlink="http://www.w3.org/1999/xlink" x="0px" y="0px"
	 viewBox="0 0 400 400" style="enable-background:new 0 0 400 400;" xml:space="preserve">
<style type="text/css">
	.st0{fill:url(#SVGID_1_);}
	.st1{display:none;}
	.st2{display:inline;fill:url(#SVGID_2_);}
	.st3{display:inline;fill:url(#SVGID_3_);}
	.st4{display:inline;fill:none;stroke:#FFFFFF;stroke-width:6;stroke-linecap:round;stroke-linejoin:round;}
	.st5{display:inline;fill:none;stroke:#000000;stroke-width:8;stroke-linecap:round;stroke-linejoin:round;}
	.st6{display:inline;fill:none;stroke:#000000;stroke-width:6;stroke-linecap:round;stroke-linejoin:round;}
	.st7{fill:none;stroke:#000000;stroke-width:8;stroke-linecap:round;stroke-linejoin:round;stroke-miterlimit:10;}
</style>
<g id="Capa_2">
	<linearGradient id="SVGID_1_" gradientUnits="userSpaceOnUse" x1="203.355" y1="287.69" x2="203.355" y2="25">
		<stop  offset="0" style="stop-color:#073642"/>
		<stop  offset="1" style="stop-color:#AEAFA9"/>
	</linearGradient>
	<path class="st0" d="M203.4,277.6L203.4,277.6c0,5.6,27.2,10.1,60.6,10.1l0,0c55.8,0,101-40.7,101-90.9l0,0v-80.8
		C365,65.7,292.6,25,203.3,25l0,0c-89.3,0-161.6,40.7-161.6,90.9v80.8l0,0c0,50.2,45.2,90.9,101,90.9l0,0
		C176.2,287.7,203.3,283.1,203.4,277.6L203.4,277.6 M213.5,156.4c33.7-33.7,67.3-33.7,101,0C280.8,190,247.1,190,213.5,156.4
		 M233.6,247.3c-20.2,13.5-30.3,3.4-30.3-30.3c0,33.7-10.1,43.8-30.3,30.3l0,0c-13.4-6.7-3.3-37,30.3-90.9v0
		C237,210.2,247.1,240.6,233.6,247.3 M92.5,156.4c33.7-33.7,67.3-33.7,101,0C159.8,190,126.1,190,92.5,156.4"/>
</g>
<g id="Capa_5" class="st1">
	<linearGradient id="SVGID_2_" gradientUnits="userSpaceOnUse" x1="202.4597" y1="380.9021" x2="202.4597" y2="269.0241">
		<stop  offset="0" style="stop-color:#72DEC2"/>
		<stop  offset="0.1303" style="stop-color:#7ADCBB"/>
		<stop  offset="0.3326" style="stop-color:#90D5A7"/>
		<stop  offset="0.5816" style="stop-color:#B4CB88"/>
		<stop  offset="0.865" style="stop-color:#E5BD5C"/>
		<stop  offset="1" style="stop-color:#FFB545"/>
	</linearGradient>
	<polyline class="st2" points="100.8,380.9 304.2,380.9 294.4,329 283.8,269 283.8,269 120.6,269.9 100.8,380.9 	"/>
	<linearGradient id="SVGID_3_" gradientUnits="userSpaceOnUse" x1="202.2683" y1="290.1219" x2="202.2683" y2="25.6829">
		<stop  offset="0" style="stop-color:#72DEC2"/>
		<stop  offset="0.1109" style="stop-color:#8DD6AA"/>
		<stop  offset="0.3047" style="stop-color:#B6CA86"/>
		<stop  offset="0.4947" style="stop-color:#D6C16A"/>
		<stop  offset="0.6774" style="stop-color:#ECBA55"/>
		<stop  offset="0.8494" style="stop-color:#FAB649"/>
		<stop  offset="1" style="stop-color:#FFB545"/>
	</linearGradient>
	<path class="st3" d="M202.3,25.7c-89.9,0-162.7,41-162.7,91.5v81.4l0,0c0,50.6,45.5,91.5,101.7,91.5l0,0c33.7,0,61-4.6,61-10.2l0,0
		l0,0c0,5.6,27.3,10.2,61,10.2l0,0c56.2,0,101.7-41,101.7-91.5l0,0v-81.4C365,66.7,292.1,25.7,202.3,25.7L202.3,25.7z M110.7,157.9
		c0-16.9,13.7-30.5,30.5-30.5s30.5,13.7,30.5,30.5l0,0c0,16.9-13.7,30.5-30.5,30.5l0,0C124.4,188.4,110.7,174.8,110.7,157.9
		 M232.8,249.4c-20.3,13.6-30.5,3.4-30.5-30.5c0,33.9-10.2,44.1-30.5,30.5c-13.6-6.8-3.4-37.3,30.5-91.5
		C236.2,212.1,246.3,242.7,232.8,249.4z M232.7,157.9c0-16.9,13.7-30.5,30.5-30.5c16.9,0,30.5,13.7,30.5,30.5l0,0
		c0,16.9-13.7,30.5-30.5,30.5l0,0C246.4,188.4,232.7,174.8,232.7,157.9"/>
</g>
<g id="Capa_3" class="st1">
	<path class="st4" d="M344.7,259.6"/>
	<path class="st4" d="M-52-15"/>
	<path class="st5" d="M202.3,157.9c-33.9,54.2-44.1,84.8-30.5,91.5 M232.8,249.4c-20.3,13.6-30.5,3.4-30.5-30.5 M39.5,117.2
		c0-50.6,72.9-91.5,162.7-91.5 M39.5,117.2v81.4l0,0c0,50.6,45.5,91.5,101.7,91.5l0,0c33.7,0,61-4.6,61-10.2l0,0 M59.9,310.5
		c40.7,13.6,88.1,20.3,142.4,20.3 M171.8,330.8c0-27.1,10.2-40.7,30.5-40.7 M232.8,330.8c0,27.1-10.2,40.7-30.5,40.7 M232.8,330.8
		c0-20.3,6.8-30.5,20.3-30.5 M151.4,300.3c-13.6,0-20.3,10.2-20.3,30.5 M273.5,330.8c0,20.3-6.8,30.5-20.3,30.5 M151.4,361.3
		c13.6,0,20.3-10.2,20.3-30.5 M90.4,320.6c0-13.6,6.8-20.3,20.3-20.3 M293.8,300.3c-13.6,0-20.3,10.2-20.3,30.5 M314.1,320.6
		c0,20.3-6.8,30.5-20.3,30.5 M110.7,351.1c13.6,0,20.3-6.8,20.3-20.3 M131.1,157.9L131.1,157.9c0-5.6,4.6-10.2,10.2-10.2l0,0
		c5.6,0,10.2,4.6,10.2,10.2l0,0c0,5.6-4.6,10.2-10.2,10.2l0,0C135.6,168.1,131.1,163.5,131.1,157.9L131.1,157.9 M120.9,269.8
		L120.9,269.8l-20.3,111.9H304 M110.7,157.9c0-16.9,13.7-30.5,30.5-30.5s30.5,13.7,30.5,30.5l0,0c0,16.9-13.7,30.5-30.5,30.5l0,0
		C124.4,188.4,110.7,174.8,110.7,157.9 M222.6,157.9c0,28.1,27.3,50.9,61,50.9l0,0C283.6,180.7,256.3,157.9,222.6,157.9
		 M100.6,127.4c27.1-27.1,54.2-27.1,81.4,0 M202.3,157.9c33.9,54.2,44.1,84.8,30.5,91.5 M171.8,249.4c20.3,13.6,30.5,3.4,30.5-30.5
		 M365,117.2c0-50.6-72.9-91.5-162.7-91.5l0,0 M365,117.2v81.4l0,0c0,50.6-45.5,91.5-101.7,91.5l0,0c-33.7,0-61-4.6-61-10.2l0,0
		 M344.7,310.5c-40.7,13.6-88.1,20.3-142.4,20.3 M232.8,330.8c0-27.1-10.2-40.7-30.5-40.7 M171.8,330.8c0,27.1,10.2,40.7,30.5,40.7
		 M171.8,330.8c0-20.3-6.8-30.5-20.3-30.5 M253.1,300.3c13.6,0,20.3,10.2,20.3,30.5 M131.1,330.8c0,20.3,6.8,30.5,20.3,30.5
		 M253.1,361.3c-13.6,0-20.3-10.2-20.3-30.5 M314.1,320.6c0-13.6-6.8-20.3-20.3-20.3 M110.7,300.3c13.6,0,20.3,10.2,20.3,30.5
		 M90.4,320.6c0,20.3,6.8,30.5,20.3,30.5 M293.8,351.1c-13.6,0-20.3-6.8-20.3-20.3 M273.5,157.9L273.5,157.9
		c0-5.6-4.6-10.2-10.2-10.2l0,0c-5.6,0-10.2,4.6-10.2,10.2l0,0c0,5.6,4.6,10.2,10.2,10.2l0,0C268.9,168.1,273.5,163.5,273.5,157.9
		L273.5,157.9 M283.6,269.8L283.6,269.8L304,381.7H100.6 M293.8,157.9c0-16.9-13.7-30.5-30.5-30.5l0,0c-16.9,0-30.5,13.7-30.5,30.5
		s13.7,30.5,30.5,30.5l0,0C280.1,188.4,293.8,174.8,293.8,157.9 M181.9,157.9c0,28.1-27.3,50.9-61,50.9l0,0
		C120.9,180.7,148.2,157.9,181.9,157.9 M304,127.4c-27.1-27.1-54.2-27.1-81.4,0 M304,127.4c-27.1,33.9-54.2,33.9-81.4,0"/>
	<path class="st6" d="M100.6,127.4c27.1,33.9,54.2,33.9,81.4,0"/>
</g>
<g id="Capa_4">
	<title>tzontli_4</title>
	<g id="Capa_8">
		<path class="st7" d="M203.3,156.3c-33.6,53.9-43.8,84.2-30.3,90.9 M233.6,247.3c-20.2,13.5-30.3,3.4-30.3-30.3 M213.5,156.4
			c33.7-33.7,67.3-33.7,101,0C280.8,190,247.1,190,213.5,156.4 M203.3,156.4c33.7,53.9,43.8,84.2,30.3,90.9 M173,247.3
			c20.2,13.5,30.3,3.4,30.3-30.3 M193.2,156.4c-33.7-33.7-67.4-33.7-101,0C125.9,190,159.6,190,193.2,156.4"/>
		<path d="M284.2,156.3c-11.1,0-20.2-9.1-20.2-20.2l0,0c0,11.2-9,20.2-20.2,20.2c0,0,0,0,0,0l0,0c11.2,0,20.2,9,20.2,20.2
			c0,0,0,0,0,0l0,0l0,0C264,165.4,273,156.3,284.2,156.3C284.2,156.3,284.2,156.3,284.2,156.3L284.2,156.3"/>
		<path d="M122.5,156.3c11.2,0,20.2-9,20.2-20.2l0,0c0,11.2,9,20.2,20.2,20.2c0,0,0,0,0,0l0,0c-11.2,0-20.2,9-20.2,20.2l0,0
			C142.7,165.4,133.7,156.3,122.5,156.3C122.5,156.3,122.5,156.3,122.5,156.3L122.5,156.3"/>
		<path class="st7" d="M61.9,307.9c40.4,13.5,87.6,20.2,141.4,20.2"/>
		<path class="st7" d="M173,328.1c0-26.9,10.1-40.4,30.3-40.4"/>
		<path class="st7" d="M233.7,328.1c0,26.9-10.1,40.4-30.3,40.4"/>
		<path class="st7" d="M233.7,328.1c0-20.2,6.7-30.3,20.2-30.3"/>
		<path class="st7" d="M152.8,297.7c-13.5,0-20.2,10.1-20.2,30.3"/>
		<path class="st7" d="M274.1,328.1c0,20.2-6.7,30.3-20.2,30.3"/>
		<path class="st7" d="M152.8,358.4c13.5,0,20.2-10.1,20.2-30.3"/>
		<path class="st7" d="M92.3,318c0-13.5,6.7-20.3,20.2-20.3"/>
		<path class="st7" d="M294.2,297.7c-13.5,0-20.2,10.1-20.2,30.3"/>
		<path class="st7" d="M314.5,318c0,20.2-6.7,30.3-20.2,30.3"/>
		<path class="st7" d="M112.4,348.3c13.5,0,20.2-6.7,20.2-20.2"/>
		<path class="st7" d="M344.8,307.9c-40.4,13.5-87.6,20.2-141.4,20.2"/>
		<path class="st7" d="M233.7,328.1c0-26.9-10.1-40.4-30.3-40.4"/>
		<path class="st7" d="M173,328.1c0,26.9,10.1,40.4,30.3,40.4"/>
		<path class="st7" d="M173,328.1c0-20.2-6.7-30.3-20.2-30.3"/>
		<path class="st7" d="M253.9,297.7c13.5,0,20.2,10.1,20.2,30.3"/>
		<path class="st7" d="M132.6,328.1c0,20.2,6.7,30.3,20.2,30.3"/>
		<path class="st7" d="M253.9,358.4c-13.5,0-20.2-10.1-20.2-30.3"/>
		<path class="st7" d="M314.5,318c0-13.5-6.7-20.2-20.2-20.2"/>
		<path class="st7" d="M112.4,297.7c13.5,0,20.2,10.1,20.2,30.3"/>
		<path class="st7" d="M92.3,318c0,20.2,6.7,30.3,20.2,30.3"/>
		<path class="st7" d="M294.2,348.3c-13.5,0-20.2-6.7-20.2-20.2"/>
		<path class="st7" d="M41.7,115.9c0-50.2,72.4-90.9,161.6-90.9"/>
		<path class="st7" d="M41.7,115.9v80.8l0,0c0,50.2,45.2,90.9,101,90.9l0,0c33.5,0,60.6-4.5,60.6-10.1l0,0"/>
		<path class="st7" d="M365,115.9C365,65.7,292.6,25,203.3,25l0,0"/>
		<path class="st7" d="M365,115.9v80.8l0,0c0,50.2-45.2,90.9-101,90.9l0,0c-33.5,0-60.6-4.5-60.6-10.1l0,0"/>
	</g>
</g>
</svg>
