<?xml version="1.0" encoding="utf-8"?>
<!-- Generator: Adobe Illustrator 22.1.0, SVG Export Plug-In . SVG Version: 6.00 Build 0)  -->
<svg version="1.1" xmlns="http://www.w3.org/2000/svg" xmlns:xlink="http://www.w3.org/1999/xlink" x="0px" y="0px"
	 viewBox="0 0 200 200" style="enable-background:new 0 0 200 200;" xml:space="preserve">
<style type="text/css">
	.st0{fill:url(#SVGID_1_);}
	.st1{fill:none;stroke:#000000;stroke-width:4;stroke-linecap:round;stroke-linejoin:round;stroke-miterlimit:10;}
</style>
<g id="Capa_2">
	<linearGradient id="SVGID_1_" gradientUnits="userSpaceOnUse" x1="100.5" y1="138.5" x2="100.5" y2="21.5">
		<stop  offset="0" style="stop-color:#DDDDDD"/>
		<stop  offset="1" style="stop-color:#D09090"/>
	</linearGradient>
	<path class="st0" d="M172.5,107c0,21-24,31.5-72,31.5s-72-10.5-72-31.5c-3-24-1.5-45,4.5-63c9-15,31.5-22.5,67.5-22.5
		S159,29,168,44C174,62,175.5,83,172.5,107z M136.5,80c0-5-4-9-9-9l0,0c-5,0-9,4-9,9l0,0c0,5,4,9,9,9l0,0
		C132.5,89,136.5,85,136.5,80L136.5,80 M100.5,116c0,9,4.5,10.5,13.5,4.5l0,0c6-6,1.5-19.5-13.5-40.5c-15,21-19.5,34.5-13.5,40.5
		l0,0C96,126.5,100.5,125,100.5,116z M82.5,80c0-5-4-9-9-9l0,0c-5,0-9,4-9,9l0,0c0,5,4,9,9,9l0,0C78.5,89,82.5,85,82.5,80L82.5,80"
		/>
</g>
<g id="Capa_1">
	<title>tzompantli_1</title>
	<g id="Capa_2_1_">
		<path class="st1" d="M64.5,80c0-5,4-9,9-9l0,0c5,0,9,4,9,9l0,0c0,5-4,9-9,9l0,0C68.5,89,64.5,85,64.5,80L64.5,80"/>
		<path class="st1" d="M78,152c0-12.4,10.1-22.5,22.5-22.5l0,0"/>
		<path class="st1" d="M78,152c0-9.9-8.1-18-18-18l0,0c-9.9,0-18,8.1-18,18l0,0c0,9.9,8.1,18,18,18l0,0C69.9,170,78,161.9,78,152
			L78,152c0,12.4,10.1,22.5,22.5,22.5l0,0"/>
		<path class="st1" d="M37.5,147.5c15,6,36,9,63,9"/>
		<path class="st1" d="M136.5,80c0-5-4-9-9-9l0,0c-5,0-9,4-9,9l0,0c0,5,4,9,9,9l0,0C132.5,89,136.5,85,136.5,80L136.5,80"/>
		<path class="st1" d="M100.5,80c-15,21-19.5,34.5-13.5,40.5l0,0c9,6,13.5,4.5,13.5-4.5"/>
		<path class="st1" d="M100.5,80c15,21,19.5,34.5,13.5,40.5l0,0c-9,6-13.5,4.5-13.5-4.5"/>
		<path class="st1" d="M28.5,107c0,21,24,31.5,72,31.5"/>
		<path class="st1" d="M28.5,107c-3-24-1.5-45,4.5-63"/>
		<path class="st1" d="M168,44c-9-15-31.5-22.5-67.5-22.5"/>
		<path class="st1" d="M172.5,107c0,21-24,31.5-72,31.5"/>
		<path class="st1" d="M172.5,107c3-24,1.5-45-4.5-63"/>
		<path class="st1" d="M33,44c9-15,31.5-22.5,67.5-22.5"/>
		<path class="st1" d="M123,152c0-12.4-10.1-22.5-22.5-22.5l0,0"/>
		<path class="st1" d="M123,152c0-9.9,8.1-18,18-18l0,0c9.9,0,18,8.1,18,18l0,0c0,9.9-8.1,18-18,18l0,0C131.1,170,123,161.9,123,152
			L123,152c0,12.4-10.1,22.5-22.5,22.5l0,0"/>
		<path class="st1" d="M163.5,147.5c-15,6-36,9-63,9"/>
	</g>
</g>
</svg>
