<?xml version="1.0" encoding="utf-8"?>
<!-- Generator: Adobe Illustrator 22.1.0, SVG Export Plug-In . SVG Version: 6.00 Build 0)  -->
<svg version="1.1" id="Capa_4" xmlns="http://www.w3.org/2000/svg" xmlns:xlink="http://www.w3.org/1999/xlink" x="0px" y="0px"
	 viewBox="0 0 400 400" style="enable-background:new 0 0 400 400;" xml:space="preserve">
<style type="text/css">
	.st0{fill:none;stroke:#EC7600;stroke-width:4;stroke-linecap:round;stroke-linejoin:round;stroke-miterlimit:10;}
	.st1{fill:#EC7600;}
</style>
<title>tzontli_4</title>
<g id="Capa_8">
	<path class="st0" d="M203.3,156.3c-33.6,53.9-43.8,84.2-30.3,90.9 M233.6,247.3c-20.2,13.5-30.3,3.4-30.3-30.3 M213.5,156.4
		c33.7-33.7,67.3-33.7,101,0C280.8,190,247.1,190,213.5,156.4 M203.3,156.4c33.7,53.9,43.8,84.2,30.3,90.9 M173,247.3
		c20.2,13.5,30.3,3.4,30.3-30.3 M193.2,156.4c-33.7-33.7-67.4-33.7-101,0C125.9,190,159.6,190,193.2,156.4"/>
	<path class="st1" d="M284.2,156.3c-11.1,0-20.2-9.1-20.2-20.2l0,0c0,11.2-9,20.2-20.2,20.2c0,0,0,0,0,0l0,0
		c11.2,0,20.2,9,20.2,20.2c0,0,0,0,0,0l0,0l0,0C264,165.4,273,156.3,284.2,156.3C284.2,156.3,284.2,156.3,284.2,156.3L284.2,156.3"
		/>
	<path class="st1" d="M122.5,156.3c11.2,0,20.2-9,20.2-20.2l0,0c0,11.2,9,20.2,20.2,20.2c0,0,0,0,0,0l0,0c-11.2,0-20.2,9-20.2,20.2
		l0,0C142.7,165.4,133.7,156.3,122.5,156.3C122.5,156.3,122.5,156.3,122.5,156.3L122.5,156.3"/>
	<path class="st0" d="M61.9,307.9c40.4,13.5,87.6,20.2,141.4,20.2"/>
	<path class="st0" d="M173,328.1c0-26.9,10.1-40.4,30.3-40.4"/>
	<path class="st0" d="M233.7,328.1c0,26.9-10.1,40.4-30.3,40.4"/>
	<path class="st0" d="M233.7,328.1c0-20.2,6.7-30.3,20.2-30.3"/>
	<path class="st0" d="M152.8,297.7c-13.5,0-20.2,10.1-20.2,30.3"/>
	<path class="st0" d="M274.1,328.1c0,20.2-6.7,30.3-20.2,30.3"/>
	<path class="st0" d="M152.8,358.4c13.5,0,20.2-10.1,20.2-30.3"/>
	<path class="st0" d="M92.3,318c0-13.5,6.7-20.3,20.2-20.3"/>
	<path class="st0" d="M294.2,297.7c-13.5,0-20.2,10.1-20.2,30.3"/>
	<path class="st0" d="M314.5,318c0,20.2-6.7,30.3-20.2,30.3"/>
	<path class="st0" d="M112.4,348.3c13.5,0,20.2-6.7,20.2-20.2"/>
	<path class="st0" d="M344.8,307.9c-40.4,13.5-87.6,20.2-141.4,20.2"/>
	<path class="st0" d="M233.7,328.1c0-26.9-10.1-40.4-30.3-40.4"/>
	<path class="st0" d="M173,328.1c0,26.9,10.1,40.4,30.3,40.4"/>
	<path class="st0" d="M173,328.1c0-20.2-6.7-30.3-20.2-30.3"/>
	<path class="st0" d="M253.9,297.7c13.5,0,20.2,10.1,20.2,30.3"/>
	<path class="st0" d="M132.6,328.1c0,20.2,6.7,30.3,20.2,30.3"/>
	<path class="st0" d="M253.9,358.4c-13.5,0-20.2-10.1-20.2-30.3"/>
	<path class="st0" d="M314.5,318c0-13.5-6.7-20.2-20.2-20.2"/>
	<path class="st0" d="M112.4,297.7c13.5,0,20.2,10.1,20.2,30.3"/>
	<path class="st0" d="M92.3,318c0,20.2,6.7,30.3,20.2,30.3"/>
	<path class="st0" d="M294.2,348.3c-13.5,0-20.2-6.7-20.2-20.2"/>
	<path class="st0" d="M41.7,115.9c0-50.2,72.4-90.9,161.6-90.9"/>
	<path class="st0" d="M41.7,115.9v80.8l0,0c0,50.2,45.2,90.9,101,90.9l0,0c33.5,0,60.6-4.5,60.6-10.1l0,0"/>
	<path class="st0" d="M365,115.9C365,65.7,292.6,25,203.3,25l0,0"/>
	<path class="st0" d="M365,115.9v80.8l0,0c0,50.2-45.2,90.9-101,90.9l0,0c-33.5,0-60.6-4.5-60.6-10.1l0,0"/>
</g>
</svg>
