<?xml version="1.0" encoding="utf-8"?>
<!-- Generator: Adobe Illustrator 22.1.0, SVG Export Plug-In . SVG Version: 6.00 Build 0)  -->
<svg version="1.1" xmlns="http://www.w3.org/2000/svg" xmlns:xlink="http://www.w3.org/1999/xlink" x="0px" y="0px"
	 viewBox="0 0 400 400" style="enable-background:new 0 0 400 400;" xml:space="preserve">
<style type="text/css">
	.st0{fill:url(#SVGID_1_);}
	.st1{fill:none;stroke:#000000;stroke-width:4;stroke-linecap:round;stroke-linejoin:round;stroke-miterlimit:10;}
	.st2{display:none;}
	.st3{display:inline;}
	.st4{fill:#326698;}
	.st5{fill:#00ADA6;}
	.st6{fill:#1D1D1B;stroke:#1D1D1B;stroke-width:3;stroke-linecap:round;stroke-linejoin:round;}
	.st7{fill:none;stroke:#FFFFFF;stroke-width:5;stroke-linecap:round;stroke-linejoin:round;}
	.st8{fill:none;stroke:#1D1D1B;stroke-width:3;stroke-linecap:round;stroke-linejoin:round;}
	.st9{fill:#5BC68F;}
	.st10{fill:none;stroke:#000000;stroke-width:5;stroke-linecap:round;stroke-linejoin:round;}
	.st11{fill:none;stroke:#5BC68F;stroke-width:5;stroke-linecap:round;stroke-linejoin:round;stroke-miterlimit:10;}
	.st12{fill:#CF2C7A;}
	.st13{fill:#00B290;}
	.st14{fill:none;stroke:#CCCCCC;stroke-width:5;stroke-linecap:round;stroke-linejoin:round;}
	.st15{fill:#FF7F2C;}
	.st16{stroke:#FFFFFF;stroke-width:5;stroke-linecap:round;stroke-linejoin:round;}
	.st17{display:inline;fill:#00A470;}
	.st18{fill:none;stroke:#FFFFFF;stroke-width:4;stroke-linecap:round;stroke-linejoin:round;}
</style>
<g id="Capa_9">
	<linearGradient id="SVGID_1_" gradientUnits="userSpaceOnUse" x1="205" y1="279.1633" x2="205" y2="30.8367">
		<stop  offset="0" style="stop-color:#6ADEDC"/>
		<stop  offset="1" style="stop-color:#678CB1"/>
	</linearGradient>
	<path class="st0" d="M357.8,212.3c0,44.6-50.9,66.9-152.8,66.9S52.2,256.9,52.2,212.3c-6.4-50.9-3.2-95.5,9.6-133.7
		C80.8,46.8,128.6,30.8,205,30.8s124.2,15.9,143.3,47.8C361,116.8,364.2,161.4,357.8,212.3z M185.8,152.7
		c0-20.4-16.5-36.9-36.9-36.9c-20.4,0-36.9,16.5-36.9,36.9s16.5,36.9,36.9,36.9c0,0,0,0,0,0l0,0
		C169.3,189.6,185.8,173.1,185.8,152.7L185.8,152.7 M295.8,152.7c0-20.4-16.5-36.9-36.9-36.9c-20.4,0-36.9,16.5-36.9,36.9
		s16.5,36.9,36.9,36.9c0,0,0,0,0,0l0,0C279.3,189.6,295.8,173.1,295.8,152.7L295.8,152.7 M205,231.4c0,19.1,9.6,22.3,28.7,9.6l0,0
		c12.7-12.7,3.2-41.4-28.7-86c-31.8,44.6-41.4,73.2-28.7,86l0,0C195.4,253.7,205,250.5,205,231.4z"/>
</g>
<g id="Capa_2">
	<g id="Capa_4">
		<path class="st1" d="M157.2,307.8c0-26.4,21.4-47.8,47.8-47.8l0,0"/>
		<path class="st1" d="M157.2,307.8c0-21.1-17.1-38.2-38.2-38.2l0,0c-21.1,0-38.2,17.1-38.2,38.2l0,0c0,21.1,17.1,38.2,38.2,38.2
			l0,0C140.1,346,157.2,328.9,157.2,307.8L157.2,307.8c0,26.4,21.4,47.8,47.8,47.8l0,0"/>
		<path class="st1" d="M71.3,298.3c31.8,12.7,76.4,19.1,133.7,19.1"/>
		<path class="st1" d="M205,155c-31.8,44.6-41.4,73.2-28.7,86l0,0c19.1,12.7,28.7,9.6,28.7-9.6"/>
		<path class="st1" d="M205,155c31.8,44.6,41.4,73.2,28.7,86l0,0c-19.1,12.7-28.7,9.6-28.7-9.6"/>
		<path class="st1" d="M252.8,307.8c0-26.4-21.4-47.8-47.8-47.8l0,0"/>
		<path class="st1" d="M252.8,307.8c0-21.1,17.1-38.2,38.2-38.2l0,0c21.1,0,38.2,17.1,38.2,38.2l0,0c0,21.1-17.1,38.2-38.2,38.2l0,0
			C269.9,346,252.8,328.9,252.8,307.8L252.8,307.8c0,26.4-21.4,47.8-47.8,47.8l0,0"/>
		<path class="st1" d="M338.7,298.3c-31.8,12.7-76.4,19.1-133.7,19.1"/>
		<path class="st1" d="M52.2,212.3c0,44.6,50.9,66.9,152.8,66.9"/>
		<path class="st1" d="M52.2,212.3c-6.4-50.9-3.2-95.5,9.6-133.7"/>
		<path class="st1" d="M348.3,78.6C329.2,46.8,281.4,30.8,205,30.8"/>
		<path class="st1" d="M357.8,212.3c0,44.6-50.9,66.9-152.8,66.9"/>
		<path class="st1" d="M357.8,212.3c6.4-50.9,3.2-95.5-9.6-133.7"/>
		<path class="st1" d="M61.7,78.6C80.8,46.8,128.6,30.8,205,30.8"/>
		<path class="st1" d="M222.7,152.7c0-20.4,16.5-36.9,36.9-36.9c20.4,0,36.9,16.5,36.9,36.9c0,20.4-16.5,36.9-36.9,36.9c0,0,0,0,0,0
			l0,0C239.2,189.6,222.7,173.1,222.7,152.7L222.7,152.7"/>
		<path class="st1" d="M259.6,208.1c-30.6,0-55.4-24.8-55.4-55.4c0,0,0,0,0,0C234.8,152.7,259.6,177.5,259.6,208.1L259.6,208.1
			L259.6,208.1"/>
		<line class="st1" x1="204.3" y1="152.7" x2="204.3" y2="152.7"/>
		<path class="st1" d="M315,152.7L315,152.7c-30.6,0-55.4,24.8-55.4,55.4l0,0"/>
		<path class="st1" d="M315,152.7c0,30.6-24.8,55.4-55.4,55.4l0,0"/>
		<path class="st1" d="M204.3,134.3c0-25.5,24.8-46.1,55.4-46.1h46.2"/>
		<path class="st1" d="M185.8,152.7c0-20.4-16.5-36.9-36.9-36.9c-20.4,0-36.9,16.5-36.9,36.9s16.5,36.9,36.9,36.9c0,0,0,0,0,0l0,0
			C169.3,189.6,185.8,173.1,185.8,152.7L185.8,152.7"/>
		<path class="st1" d="M148.9,208.1c30.6,0,55.3-24.8,55.3-55.4C173.7,152.7,148.9,177.5,148.9,208.1L148.9,208.1"/>
		<path class="st1" d="M93.6,152.7L93.6,152.7c30.6,0,55.4,24.8,55.4,55.4l0,0l0,0"/>
		<path class="st1" d="M93.6,152.7c0,30.6,24.8,55.4,55.4,55.4l0,0"/>
		<path class="st1" d="M204.3,134.3c0-25.5-24.8-46.1-55.3-46.1h-46.1"/>
	</g>
</g>
<g id="Capa_3" class="st2">
	<g id="Capa_6" class="st3">
		<polygon class="st4" points="156.3,357.8 166.6,354.1 170.6,347.8 174,337.5 178,353.1 186.6,363.5 197.6,367.8 211.3,367.8 
			220.7,363.5 227,357.5 231.7,347.8 234,337.5 240.7,353.5 248.7,357.5 259.7,357.5 267.4,352.8 271.4,345.1 274,332.1 276,339.5 
			284,345.8 291.7,347.8 301.7,346.8 309.4,341.5 312.4,331.8 313.7,320.5 311.7,306.5 305.7,300.5 295,297.8 284.7,299.8 
			277.7,307.8 274,322.1 268,304.1 258,298.1 248.3,298.8 239.7,304.5 235.3,313.8 234,326.1 233.3,317.5 231.3,307.1 225.7,297.1 
			217.7,290.8 208,288.1 194.6,289.1 185,293.1 179.3,301.5 175.6,311.5 173.6,325.1 171.6,312.5 168,303.5 160,299.1 152.3,298.1 
			143.3,300.5 137.6,308.5 134,321.8 131,309.1 127.3,302.8 119.6,298.5 111.3,297.8 102.3,300.1 96.6,305.8 93.6,316.8 94.9,327.1 
			96.9,337.1 104.9,345.1 117,347.1 129,343.1 133,335.1 137,343.1 139,351.1 149,357.1 		"/>
	</g>
	<g id="Capa_5" class="st3">
		<path class="st5" d="M83.5,162.1c0-36.8,29.8-66.6,66.6-66.6c36.8,0,66.6,29.8,66.6,66.6c0,36.8-29.8,66.6-66.6,66.6c0,0,0,0,0,0
			l0,0C113.3,228.6,83.5,198.8,83.5,162.1 M324.4,162.1c0-36.8-29.8-66.6-66.6-66.6c-36.8,0-66.6,29.8-66.6,66.6
			s29.8,66.6,66.6,66.6c0,0,0,0,0,0C294.6,228.6,324.4,198.8,324.4,162.1"/>
		<path class="st6" d="M130,162.1c11.1,0,20-9,20-20l0,0c0,11.1,9,20,20,20l0,0c-11.1,0-20,9-20,20l0,0C150,171,141,162.1,130,162.1
			L130,162.1"/>
		<path class="st7" d="M204,158.1c-33.3,53.4-43.4,83.4-30,90"/>
		<path class="st7" d="M234,248.1c-20,13.3-30,3.3-30-30"/>
		<path class="st7" d="M44.1,118c0-49.7,71.6-90,159.9-90"/>
		<path class="st7" d="M44.1,118v80l0,0c0,49.7,44.7,89.9,100,89.9l0,0c33.1,0,60-4.5,60-10l0,0"/>
		<path class="st7" d="M64.1,308c40,13.3,86.7,20,139.9,20"/>
		<path class="st7" d="M174,328c0-26.7,10-40,30-40"/>
		<path class="st7" d="M234,328c0,26.7-10,40-30,40"/>
		<path class="st7" d="M234,328c0-20,6.7-30,20-30"/>
		<path class="st7" d="M154,298.1c-13.3,0-20,10-20,30"/>
		<path class="st7" d="M274,328c0,20-6.7,30-20,30"/>
		<path class="st7" d="M154,358c13.3,0,20-10,20-30"/>
		<path class="st7" d="M94,318c0-13.3,6.7-20,20-20"/>
		<path class="st7" d="M294,298.1c-13.3,0-20,10-20,30"/>
		<path class="st7" d="M313.9,318c0,20-6.7,30-20,30"/>
		<path class="st7" d="M114,348c13.3,0,20-6.7,20-20"/>
		<path class="st8" d="M140,172.1c-16.6,0-30,13.4-30,30l0,0l0,0C126.5,202.1,140,188.6,140,172.1L140,172.1L140,172.1"/>
		<path class="st8" d="M248,172.1c-16.6,0-30,13.4-30,30l0,0l0,0C234.6,202.1,248,188.6,248,172.1L248,172.1L248,172.1"/>
		<path class="st8" d="M140,152.1c0-16.6-13.4-30-30-30l0,0l0,0C109.9,138.6,123.4,152.1,140,152.1L140,152.1"/>
		<path class="st8" d="M160,152.1c16.6,0,30-13.4,30-30l0,0l0,0C173.4,122,160,135.5,160,152.1L160,152.1L160,152.1"/>
		<path class="st8" d="M228,162.1c0-16.6,13.4-30,30-30s30,13.4,30,30l0,0c0,16.6-13.4,30-30,30S228,178.6,228,162.1"/>
		<path class="st6" d="M278,162.1c-11.1,0-20-9-20-20l0,0c0,11.1-9,20-20,20l0,0c11.1,0,20,9,20,20l0,0C258,171,267,162.1,278,162.1
			L278,162.1"/>
		<path class="st7" d="M204,158.1c33.3,53.4,43.4,83.4,30,90"/>
		<path class="st7" d="M174,248.1c20,13.3,30,3.3,30-30"/>
		<path class="st7" d="M363.9,118c0-49.7-71.6-90-159.9-90l0,0"/>
		<path class="st7" d="M363.9,118v80l0,0c0,49.7-44.7,89.9-99.9,89.9l0,0c-33.1,0-60-4.5-60-10l0,0"/>
		<path class="st7" d="M343.9,308c-40,13.3-86.7,20-139.9,20"/>
		<path class="st7" d="M234,328c0-26.7-10-40-30-40"/>
		<path class="st7" d="M174,328c0,26.7,10,40,30,40"/>
		<path class="st7" d="M174,328c0-20-6.7-30-20-30"/>
		<path class="st7" d="M254,298.1c13.3,0,20,10,20,30"/>
		<path class="st7" d="M134,328c0,20,6.7,30,20,30"/>
		<path class="st7" d="M254,358c-13.3,0-20-10-20-30"/>
		<path class="st7" d="M313.9,318c0-13.3-6.7-20-20-20"/>
		<path class="st7" d="M114,298.1c13.3,0,20,10,20,30"/>
		<path class="st7" d="M94,318c0,20,6.7,30,20,30"/>
		<path class="st7" d="M294,348c-13.3,0-20-6.7-20-20"/>
		<path class="st8" d="M268,172.1c16.6,0,30,13.4,30,30l0,0l0,0C281.4,202.1,268,188.6,268,172.1L268,172.1L268,172.1"/>
		<path class="st8" d="M160,172.1c16.6,0,30,13.4,30,30l0,0l0,0C173.4,202.1,160,188.6,160,172.1L160,172.1L160,172.1"/>
		<path class="st8" d="M268,152.1c0-16.6,13.4-30,30-30l0,0l0,0C298,138.6,284.6,152.1,268,152.1L268,152.1L268,152.1"/>
		<path class="st8" d="M248,152.1c-16.6,0-30-13.4-30-30l0,0l0,0C234.6,122,248,135.5,248,152.1L248,152.1L248,152.1"/>
		<path class="st8" d="M180,162.1c0-16.6-13.4-30-30-30l0,0l0,0c-16.6,0-30,13.4-30,30s13.4,30,30,30S180,178.6,180,162.1"/>
	</g>
</g>
<g id="Capa_4_1_" class="st2">
	<g id="Capa_10" class="st3">
		<polygon class="st9" points="42.3,127 42.3,199.9 44.4,216.5 50.6,233.2 59,247.8 75.6,264.4 90.2,274.8 108.9,283.1 133.9,287.3 
			163.1,287.3 181.8,285.2 194.3,283.1 202.6,279 213,283.1 242.2,287.3 260.9,287.3 277.6,287.3 300.5,281.1 321.3,272.7 
			340,256.1 354.6,237.3 360.8,220.7 365,208.2 365,168.6 365,110.4 360.8,95.8 352.5,79.1 340,66.6 319.2,52.1 296.3,41.7 
			265.1,31.2 233.8,27.1 196.4,25 165.1,27.1 136,33.3 108.9,41.7 88.1,52.1 67.3,66.6 52.7,83.3 42.3,106.2 		"/>
		<path d="M193.2,156.3c-33.7-33.7-67.3-33.7-101,0C126,190,159.6,190,193.2,156.3"/>
		<path d="M314,156.3c-33.7-33.7-67.4-33.7-101,0C246.6,190,280.3,190,314,156.3"/>
		<polygon points="203.7,157.2 195.3,169.7 182.8,190.5 172.4,215.5 168.3,228 166.2,236.3 170.3,244.6 178.7,250.9 189.1,253 
			195.3,250.9 199.5,242.6 203.7,225.9 205.7,238.4 209.9,248.8 216.1,253 222.4,253 234.9,246.7 239,240.5 239,232.1 234.9,215.5 
			224.5,190.5 		"/>
	</g>
	<g id="Capa_8" class="st3">
		<path class="st10" d="M203.3,156.3c-33.7,53.9-43.8,84.2-30.3,90.9 M233.7,247.3c-20.2,13.5-30.3,3.4-30.3-30.3 M213.5,156.3
			c33.7-33.7,67.3-33.7,101,0C280.8,190,247.1,190,213.5,156.3 M203.3,156.3c33.7,53.9,43.8,84.2,30.3,90.9 M173,247.3
			c20.2,13.5,30.3,3.4,30.3-30.3 M193.2,156.3c-33.7-33.7-67.3-33.7-101,0C126,190,159.6,190,193.2,156.3"/>
		<path class="st9" d="M284.2,156.3c-11.2,0-20.2-9.1-20.2-20.2c0,0,0,0,0,0l0,0c0,11.2-9.1,20.2-20.2,20.2l0,0
			c11.2,0,20.2,9,20.2,20.2c0,0,0,0,0,0l0,0C264,165.4,273,156.3,284.2,156.3C284.2,156.3,284.2,156.3,284.2,156.3L284.2,156.3"/>
		<path class="st9" d="M122.5,156.3c11.2,0,20.2-9.1,20.2-20.2l0,0c0,11.2,9,20.2,20.2,20.2c0,0,0,0,0,0l0,0
			c-11.2,0-20.2,9-20.2,20.2l0,0C142.7,165.4,133.7,156.3,122.5,156.3C122.5,156.3,122.5,156.3,122.5,156.3L122.5,156.3"/>
		<path class="st11" d="M61.9,307.9c40.4,13.5,87.6,20.2,141.4,20.2"/>
		<path class="st11" d="M173,328.1c0-26.9,10.1-40.4,30.3-40.4"/>
		<path class="st11" d="M233.7,328.1c0,26.9-10.1,40.4-30.3,40.4"/>
		<path class="st11" d="M233.7,328.1c0-20.2,6.7-30.3,20.2-30.3"/>
		<path class="st11" d="M152.8,297.7c-13.5,0-20.2,10.1-20.2,30.3"/>
		<path class="st11" d="M274.1,328.1c0,20.2-6.7,30.3-20.2,30.3"/>
		<path class="st11" d="M152.8,358.4c13.5,0,20.2-10.1,20.2-30.3"/>
		<path class="st11" d="M92.3,318c0-13.5,6.7-20.3,20.2-20.3"/>
		<path class="st11" d="M294.2,297.7c-13.5,0-20.2,10.1-20.2,30.3"/>
		<path class="st11" d="M314.5,318c0,20.2-6.7,30.3-20.2,30.3"/>
		<path class="st11" d="M112.4,348.3c13.5,0,20.2-6.7,20.2-20.2"/>
		<path class="st11" d="M344.8,307.9c-40.4,13.5-87.5,20.2-141.4,20.2"/>
		<path class="st11" d="M233.7,328.1c0-26.9-10.1-40.4-30.3-40.4"/>
		<path class="st11" d="M173,328.1c0,26.9,10.1,40.4,30.3,40.4"/>
		<path class="st11" d="M173,328.1c0-20.2-6.7-30.3-20.2-30.3"/>
		<path class="st11" d="M253.9,297.7c13.5,0,20.2,10.1,20.2,30.3"/>
		<path class="st11" d="M132.6,328.1c0,20.2,6.7,30.3,20.2,30.3"/>
		<path class="st11" d="M253.9,358.4c-13.5,0-20.2-10.1-20.2-30.3"/>
		<path class="st11" d="M314.5,318c0-13.5-6.7-20.2-20.2-20.2"/>
		<path class="st11" d="M112.4,297.7c13.5,0,20.2,10.1,20.2,30.3"/>
		<path class="st11" d="M92.3,318c0,20.2,6.7,30.3,20.2,30.3"/>
		<path class="st11" d="M294.2,348.3c-13.5,0-20.2-6.7-20.2-20.2"/>
		<path class="st11" d="M41.7,115.9c0-50.2,72.4-90.9,161.6-90.9"/>
		<path class="st11" d="M41.7,115.9v80.8l0,0c0,50.2,45.2,90.9,101,90.9l0,0c33.5,0,60.6-4.5,60.6-10.1l0,0"/>
		<path class="st11" d="M365,115.9C365,65.7,292.6,25,203.3,25l0,0"/>
		<path class="st11" d="M365,115.9v80.8l0,0c0,50.2-45.2,90.9-101,90.9l0,0c-33.5,0-60.6-4.5-60.6-10.1l0,0"/>
	</g>
</g>
<g id="Capa_5_1_" class="st2">
	<g id="Capa_12" class="st3">
		<polygon class="st12" points="83.3,167.2 96.1,169.3 111,175.7 125.9,188.5 134.4,201.2 140.8,218.3 143,228.9 147.2,211.9 
			155.7,194.9 166.4,182.1 183.4,171.4 200.4,167.2 213.2,169.3 228.1,173.6 236.6,180 247.3,188.5 255.8,203.4 260,214 
			264.3,226.8 268.5,211.9 274.9,197 283.4,186.3 296.2,175.7 311.1,169.3 323.9,167.2 323.9,156.5 319.6,143.8 313.3,131 
			300.5,120.4 289.8,114 279.2,109.7 266.4,107.6 255.8,107.6 243,111.8 232.4,116.1 223.8,122.5 217.5,128.9 211.1,137.4 
			206.8,148 202.6,158.7 200.4,145.9 194,135.3 183.4,122.5 170.6,114 157.9,109.7 143,107.6 134.4,107.6 125.9,109.7 115.3,114 
			106.8,120.4 98.2,126.7 91.9,137.4 85.5,148 		"/>
		<polygon class="st13" points="203.6,187.4 244.1,249.1 241.9,249.1 233.4,249.1 220.7,255.5 216.4,259.8 210,268.3 205.7,274.7 
			203.6,278.9 199.4,270.4 190.8,259.8 178.1,251.3 167.4,249.1 163.2,249.1 		"/>
	</g>
	<g id="Capa_11" class="st3">
		<path class="st7" d="M62.7,318.8c40.2,13.4,87.3,20,140.9,20 M42.7,127.6c0-61.1,72-110.7,160.9-110.7 M42.7,127.6
			c-6.6,134.1,47,204.6,160.9,211.2 M344.3,318.8c-40.2,13.4-87.1,20-140.7,20 M364.6,127.6c0-61.1-72-110.7-160.9-110.7
			 M364.6,127.6c6.6,134.1-47,204.6-160.9,211.2"/>
		<path class="st7" d="M173.4,338.8c0-26.8,10-40.2,30.2-40.2 M233.8,338.8c0,26.8-10,40.2-30.2,40.2 M233.8,338.8
			c0-20,6.6-30.2,20-30.2 M153.4,308.8c-13.4,0-20,10-20,30.2 M274.1,338.8c0,20.2-6.6,30.2-20,30.2 M153.4,369
			c13.4,0,20-10,20-30.2 M92.9,328.8c0-13.4,6.6-20,20-20 M294.1,308.8c-13.4,0-20,10-20,30.2 M314.3,328.8c0,20-6.8,30.2-20.2,30.2
			 M113.1,359c13.4,0,20.2-6.8,20.2-20.2 M233.8,338.8c0-26.8-10-40.2-30.2-40.2 M173.4,338.8c0,26.8,10,40.2,30.2,40.2
			 M173.4,338.8c0-20-6.6-30.2-20-30.2 M253.9,308.8c13.4,0,20,10,20,30.2 M133.2,338.8c0,20.2,6.6,30.2,20,30.2 M253.9,369
			c-13.4,0-20-10-20-30.2 M314.3,328.8c0-13.4-6.8-20-20.2-20 M113.1,308.8c13.4,0,20.2,10,20.2,30.2 M92.9,328.8
			c0,20,6.6,30.2,20,30.2 M294.1,359c-13.4,0-20-6.8-20-20.2"/>
		<path d="M163.4,167.8c0-11.1-8.9-20-20-20l0,0c-11.1,0-20.2,8.9-20.2,20l0,0l0,0c0,11.1,8.9,20.2,20.2,20.2l0,0
			C154.4,188.1,163.4,178.9,163.4,167.8L163.4,167.8"/>
		<path d="M243.9,167.8c0-11.1,8.9-20,20.2-20l0,0c11.1,0,20,8.9,20,20l0,0l0,0c0,11.1-8.9,20.2-20,20.2l0,0
			C252.8,188.1,243.9,178.9,243.9,167.8L243.9,167.8"/>
		<path class="st7" d="M82.9,167.8c33.4,0,60.5-27,60.5-60.2l0,0c0,33.4,27,60.2,60.2,60.2"/>
		<path class="st7" d="M82.9,167.8c33.4,0,60.5,31.5,60.5,70.5l0,0c0-39,27-70.5,60.2-70.5"/>
		<path class="st7" d="M82.9,167.8c0-33.4,27-60.2,60.5-60.2s60.2,27,60.2,60.2"/>
		<path class="st7" d="M324.3,167.8c-33.4,0-60.2-27-60.2-60.2l0,0c0,33.4-27,60.2-60.5,60.2"/>
		<path class="st7" d="M324.3,167.8c-33.4,0-60.2,31.5-60.2,70.5l0,0c0-39-27-70.5-60.5-70.5"/>
		<path class="st7" d="M324.3,167.8c0-33.4-27-60.2-60.2-60.2s-60.5,27-60.5,60.2"/>
		<polyline class="st7" points="203.6,188.1 203.6,188.1 163.4,248.3 203.6,278.5 		"/>
		<path class="st7" d="M203.6,288.5c0-22.1,18.1-40.2,40.2-40.2"/>
		<polyline class="st7" points="203.6,188.1 203.6,188.1 243.9,248.3 203.6,278.5 		"/>
		<path class="st7" d="M203.6,288.5c0-22.1-18.1-40.2-40.2-40.2"/>
	</g>
</g>
<g id="Capa_6_1_" class="st2">
	<g id="Capa_14" class="st3">
		<polygon class="st15" points="45.5,136 47.6,114.9 49.7,100.1 60.3,79 75.1,62.1 92,47.3 115.2,34.7 134.2,26.2 157.4,19.9 
			187,15.7 218.7,15.7 246.1,17.8 269.4,24.1 292.6,34.7 313.7,45.2 330.6,60 343.3,72.7 351.7,85.4 358.1,100.1 362.3,114.9 
			362.3,157.2 360.2,176.2 358.1,201.5 353.8,218.4 347.5,237.4 341.2,250.1 328.5,273.3 315.8,288.1 298.9,300.8 288.4,300.8 
			279.9,305 275.7,315.6 271.5,315.6 267.3,307.1 260.9,302.9 250.4,300.8 241.9,305 237.7,311.3 233.5,321.9 231.4,309.2 
			227.1,300.8 218.7,294.4 206,290.2 193.3,292.3 184.9,298.7 178.6,305 174.3,321.9 172.2,311.3 163.8,302.9 155.3,300.8 
			146.9,302.9 138.4,309.2 136.3,315.6 132.1,313.5 130,307.1 123.6,302.9 115.2,300.8 108.9,300.8 100.4,294.4 83.5,277.5 
			68.7,256.4 60.3,235.3 51.8,205.7 47.6,176.2 45.5,146.6 		"/>
		<polygon points="163.8,241.6 203.9,184.6 208.1,188.8 244,241.6 233.5,243.8 225,245.9 216.6,252.2 210.2,260.7 203.9,273.3 
			197.6,260.7 189.1,250.1 175.4,242.7 		"/>
		<path d="M95.1,173c0,0,2.1-48.6,50.7-48.6C145.8,124.4,143.7,173,95.1,173z"/>
		<path d="M312.7,173c0,0-48.6,0-48.6-48.6C264.1,124.4,312.7,124.4,312.7,173"/>
		<polygon class="st15" points="128.9,346.2 135.3,337.7 137.4,348.3 145.8,358.9 158.5,361 169,354.6 173.3,342 175.4,344.1 
			179.6,354.6 183.8,363.1 196.5,369.4 209.2,369.4 219.7,365.2 228.2,356.7 234.5,339.9 236.6,350.4 245.1,358.9 255.6,361 
			264.1,356.7 270.4,348.3 272.5,333.5 276.8,344.1 278.9,346.2 278.9,352.5 272.5,363.1 259.9,373.6 249.3,377.9 228.2,380 
			173.3,380 164.8,380 154.3,375.8 143.7,371.5 135.3,363.1 		"/>
	</g>
	<g id="Capa_13" class="st3">
		<path class="st7" d="M204.2,182.9L204.2,182.9L164.8,242l39.4,29.6 M95.8,173c27.2,0,49.2-22,49.3-49.2l0,0 M95.8,173
			c0-27.2,22.1-49.2,49.3-49.2l0,0 M66.2,311c39.4,13.1,85.4,19.7,138,19.7 M46.6,123.8c0-59.9,70.6-108.4,157.7-108.4 M46.6,123.8
			c-6.6,131.4,46,200.4,157.7,207 M204.2,281.5c0-21.8,17.6-39.4,39.4-39.4l0,0 M125.3,291.3c-6.6,59.1,9.9,88.7,49.3,88.7h29.6
			 M145,123.8L145,123.8 M204.2,182.9L204.2,182.9l39.4,59.1l-39.4,29.6 M312.5,173c-27.2,0-49.2-22-49.3-49.2l0,0 M312.5,173
			c0-27.2-22.1-49.2-49.3-49.2l0,0 M342.1,311c-39.4,13.1-85.4,19.7-137.9,19.7 M361.8,123.7c0-59.9-70.6-108.4-157.6-108.4
			 M361.8,123.8c6.6,131.4-46,200.4-157.6,207 M204.1,281.5c0-21.8-17.6-39.4-39.3-39.5 M283.1,291.3c6.6,59.1-9.8,88.7-49.3,88.7
			h-29.6 M263.4,123.8L263.4,123.8"/>
		<path class="st7" d="M174.6,330.7c0-26.3,9.9-39.4,29.6-39.4 M233.7,330.7c0,26.3-9.9,39.4-29.6,39.4 M233.7,330.7
			c0-19.7,6.6-29.6,19.7-29.6 M154.9,301.1c-13.1,0-19.7,9.9-19.7,29.6 M273.1,330.7c0,19.7-6.6,29.6-19.7,29.6 M154.9,360.3
			c13.1,0,19.7-9.9,19.7-29.6 M95.8,320.8c0-13.1,6.6-19.7,19.7-19.7 M292.9,301.1c-13.1,0-19.7,9.9-19.7,29.6 M312.5,320.8
			c0,19.7-6.6,29.6-19.7,29.6 M115.4,350.4c13.2,0,19.8-6.6,19.8-19.7 M233.8,330.7c0-26.3-9.9-39.4-29.6-39.4 M174.6,330.7
			c0,26.3,9.9,39.4,29.6,39.4 M174.6,330.7c0-19.7-6.6-29.6-19.7-29.6 M253.5,301.1c13.1,0,19.7,9.9,19.7,29.6 M135.2,330.7
			c0,19.7,6.6,29.6,19.7,29.6 M253.5,360.3c-13.1,0-19.7-9.9-19.7-29.6 M312.5,320.8c0-13.1-6.6-19.7-19.7-19.7 M115.4,301.1
			c13.1,0,19.7,9.9,19.7,29.6 M95.8,320.8c0,19.7,6.6,29.6,19.7,29.6 M292.9,350.4c-13.1,0-19.7-6.6-19.7-19.7"/>
		<path class="st16" d="M164.8,163.2c0-10.9-8.7-19.7-19.6-19.8c-0.1,0-0.1,0-0.2,0l0,0c-10.9,0-19.7,8.8-19.7,19.7l0,0l0,0
			c0,10.9,8.8,19.7,19.7,19.7c0,0,0,0,0,0l0,0C155.9,182.9,164.8,174.1,164.8,163.2C164.8,163.2,164.8,163.2,164.8,163.2
			L164.8,163.2"/>
		<path class="st16" d="M243.6,163.2c0-10.9,8.8-19.7,19.6-19.8c0,0,0,0,0.1,0l0,0c10.9,0,19.7,8.8,19.7,19.7l0,0l0,0
			c0,10.9-8.8,19.7-19.7,19.7c0,0,0,0,0,0l0,0C252.4,182.8,243.6,174,243.6,163.2C243.6,163.1,243.6,163.1,243.6,163.2L243.6,163.2"
			/>
	</g>
</g>
<g id="Capa_7" class="st2">
	<path class="st17" d="M53.9,144.7c0,0-3.2-115,144.6-121.9c67.1-3.1,112.6,29.9,135.3,58.9c21.9,27.9,20.7,64,20.7,64l7.2,3.1
		l8.3,12.4l4.1,18.6l-4.1,16.5l-8.3,10.3L334.8,217l2.1,8.3c0,0,18.6,53.7-35.1,70.2h-6.2l-6.2-2.1l-8.3,2.1l-8.3,8.3l-2.1,10.3
		l-4.1-12.4l-8.3-6.2l-8.3-2.1l-6.2,2.1l-6.2,4.1l-6.2,14.5l-2.1-12.4l-6.2-10.3l-8.3-4.1l-8.3-2.1h-8.3l-8.3,4.1l-8.3,6.2l-4.1,8.3
		l-2.1,10.3l-2.1-10.3l-4.1-6.2l-6.2-2.1l-8.3-2.1l-8.3,4.1l-4.1,6.2l-4.1,8.3l-2.1-6.2l-4.1-8.3l-10.3-4.1l-10.3,2.1h-4.1
		l-10.3-4.1l-12.4-8.3l-8.3-8.3l-6.2-12.4l-2.1-10.3v-12.4l4.1-22.7c0,0-43-5.7-37.2-43.4C39.4,146.8,53.9,144.7,53.9,144.7z"/>
	<circle class="st3" cx="147.8" cy="162.3" r="27.9"/>
	<circle class="st3" cx="261.4" cy="162.3" r="27.9"/>
	<path class="st3" d="M157.1,256.3c0,0,4.1-37.2,47.5-37.2s47.5,37.2,47.5,37.2s-37.2,2.1-47.5-33
		C204.6,223.2,198.4,256.3,157.1,256.3z"/>
	<path class="st17" d="M132.3,338.9l6.2-10.3l2.1,8.3l4.1,10.3l6.2,2.1l10.3,2.1c0,0,14.5-6.2,14.5-18.6c0,0,4.1,26.9,28.9,26.9
		s26.9-20.7,26.9-20.7l2.1-6.2l2.1,8.3c0,0,8.3,12.4,16.5,10.3c0,0,18.6-2.1,18.6-20.7l4.1,6.2l2.1,2.1c0,0-6.2,26.9-35.1,31h-70.2
		c0,0-26.9-4.1-33-18.6L132.3,338.9z"/>
</g>
<g id="Capa_8_1_" class="st2">
	<g id="Capa_15" class="st3">
		<path class="st18" d="M72.9,218.8c-18.8,62.7,25.1,90.9,131.7,84.7 M129.4,284.7c-6.3,56.5,9.4,84.7,47,84.7h28.2 M148.2,134.1
			L148.2,134.1c15.6,0,28.2,12.6,28.2,28.2l0,0c0,15.6-12.6,28.2-28.2,28.2h0l0,0 M148.2,134.1c-15.6-0.4-28.6,11.9-29,27.5
			s11.9,28.6,27.5,29c0.5,0,1,0,1.5,0 M35.3,181.2c0,25.1,25.1,37.6,75.3,37.6 M35.3,181.2c0-25.1,9.4-37.6,28.2-37.6 M54.1,143.5
			c0-67.6,67.4-122.3,150.5-122.3 M148.2,124.7c0,20.8,16.8,37.6,37.6,37.6l0,0l0,0C185.8,141.6,169,124.7,148.2,124.7L148.2,124.7
			 M261.1,124.7c20.8,0,37.6,16.8,37.7,37.6c0,0,0,0,0,0 M204.6,218.8c-26,0-47,16.9-47,37.6l0,0
			C183.6,256.4,204.6,239.6,204.6,218.8L204.6,218.8L204.6,218.8z M82.3,303.5c25.1,18.8,65.9,28.2,122.3,28.2 M336.4,218.8
			c18.8,62.7-25.1,90.9-131.7,84.7 M279.9,284.7c6.3,56.5-9.4,84.7-47,84.7h-28.2 M261.1,134.1L261.1,134.1
			c-15.6,0.4-27.9,13.4-27.5,29c0.4,15,12.5,27.1,27.5,27.5l0,0 M261.1,134.1c15.6,0,28.2,12.6,28.2,28.2l0,0
			c0,15.6-12.6,28.2-28.2,28.2c0,0,0,0,0,0 M374,181.2c0,25.1-25.1,37.6-75.3,37.6 M374,181.2c0-25.1-9.4-37.6-28.2-37.6
			 M355.2,143.5c0-67.6-67.4-122.3-150.5-122.3 M261.1,124.7c0,20.8-16.8,37.6-37.6,37.6l0,0l0,0
			C223.5,141.6,240.3,124.7,261.1,124.7L261.1,124.7 M148.2,124.7c-20.8,0-37.6,16.8-37.7,37.6c0,0,0,0,0,0 M204.6,218.8
			c26,0,47,16.9,47,37.6l0,0C225.7,256.4,204.6,239.6,204.6,218.8L204.6,218.8L204.6,218.8z M327,303.5
			c-25.1,18.8-65.9,28.2-122.3,28.2"/>
		<path class="st18" d="M176.4,322.3c0-25.1,9.4-37.6,28.2-37.6 M232.9,322.3c0,25.1-9.4,37.6-28.2,37.6 M232.9,322.3
			c0-18.8,6.3-28.2,18.8-28.2 M157.6,294.1c-12.5,0-18.8,9.4-18.8,28.2 M270.5,322.3c0,18.8-6.3,28.2-18.8,28.2 M157.6,350.6
			c12.6,0,18.8-9.4,18.8-28.2 M101.1,312.9c0-12.6,6.3-18.8,18.8-18.8 M289.3,294.1c-12.5,0-18.8,9.4-18.8,28.2 M308.1,312.9
			c0,18.8-6.3,28.2-18.8,28.2 M120,341.2c12.5,0,18.8-6.3,18.8-18.8 M232.9,322.3c0-25.1-9.4-37.6-28.2-37.6 M176.4,322.3
			c0,25.1,9.4,37.6,28.2,37.6 M176.4,322.3c0-18.8-6.3-28.2-18.8-28.2 M251.7,294.1c12.5,0,18.8,9.4,18.8,28.2 M138.8,322.3
			c0,18.8,6.3,28.2,18.8,28.2 M251.7,350.6c-12.6,0-18.8-9.4-18.8-28.2 M308.1,312.9c0-12.6-6.3-18.8-18.8-18.8 M120,294.1
			c12.5,0,18.8,9.4,18.8,28.2 M101.1,312.9c0,18.8,6.3,28.2,18.8,28.2 M289.3,341.2c-12.5,0-18.8-6.3-18.8-18.8"/>
	</g>
</g>
</svg>
