<?xml version="1.0" encoding="utf-8"?>
<!-- Generator: Adobe Illustrator 22.1.0, SVG Export Plug-In . SVG Version: 6.00 Build 0)  -->
<svg version="1.1" xmlns="http://www.w3.org/2000/svg" xmlns:xlink="http://www.w3.org/1999/xlink" x="0px" y="0px"
	 viewBox="0 0 400 400" style="enable-background:new 0 0 400 400;" xml:space="preserve">
<style type="text/css">
	.st0{fill:url(#SVGID_1_);}
	.st1{fill:url(#SVGID_2_);}
	.st2{fill:none;stroke:#000000;stroke-width:8;stroke-linecap:round;stroke-linejoin:round;stroke-miterlimit:10;}
	.st3{fill:none;stroke:#000000;stroke-width:5;stroke-linecap:round;stroke-linejoin:round;stroke-miterlimit:10;}
	.st4{fill:none;stroke:#000000;stroke-width:6;stroke-linecap:round;stroke-linejoin:round;stroke-miterlimit:10;}
</style>
<g id="Capa_2">
	<polygon points="163.8,241.6 203.9,184.6 208.1,188.8 244,241.6 233.5,243.8 225,245.9 216.6,252.2 210.2,260.7 203.9,273.3 
		197.6,260.7 189.1,250.1 175.4,242.7 	"/>
	<path d="M95.1,173c0,0,2.1-48.6,50.7-48.6C145.8,124.4,143.7,173,95.1,173z"/>
	<path d="M312.7,173c0,0-48.6,0-48.6-48.6C264.1,124.4,312.7,124.4,312.7,173"/>
	<linearGradient id="SVGID_1_" gradientUnits="userSpaceOnUse" x1="203.8966" y1="379.9789" x2="203.8966" y2="333.5159">
		<stop  offset="0" style="stop-color:#963A46"/>
		<stop  offset="0.1788" style="stop-color:#973D4A"/>
		<stop  offset="0.3571" style="stop-color:#9B4656"/>
		<stop  offset="0.5353" style="stop-color:#A1546A"/>
		<stop  offset="0.7137" style="stop-color:#AA6886"/>
		<stop  offset="0.8903" style="stop-color:#B682AA"/>
		<stop  offset="1" style="stop-color:#BE95C4"/>
	</linearGradient>
	<polygon class="st0" points="128.9,346.2 135.3,337.7 137.4,348.3 145.8,358.9 158.5,361 169,354.6 173.3,342 175.4,344.1 
		179.6,354.6 183.8,363.1 196.5,369.4 209.2,369.4 219.7,365.2 228.2,356.7 234.5,339.9 236.6,350.4 245.1,358.9 255.6,361 
		264.1,356.7 270.4,348.3 272.5,333.5 276.8,344.1 278.9,346.2 278.9,352.5 272.5,363.1 259.9,373.6 249.3,377.9 228.2,380 
		173.3,380 164.8,380 154.3,375.8 143.7,371.5 135.3,363.1 	"/>
	<linearGradient id="SVGID_2_" gradientUnits="userSpaceOnUse" x1="203.8966" y1="321.9001" x2="203.8966" y2="15.6668">
		<stop  offset="0" style="stop-color:#963A46"/>
		<stop  offset="1" style="stop-color:#BE95C4"/>
	</linearGradient>
	<path class="st1" d="M45.5,136l2.1-21.1l2.1-14.8L60.3,79l14.8-16.9L92,47.3l23.2-12.7l19-8.4l23.2-6.3l29.6-4.2h31.7l27.5,2.1
		l23.2,6.3l23.2,10.6l21.1,10.6L330.6,60l12.7,12.7l8.4,12.7l6.3,14.8l4.2,14.8v42.2l-2.1,19l-2.1,25.3l-4.2,16.9l-6.3,19l-6.3,12.7
		l-12.7,23.2l-12.7,14.8l-16.9,12.7h-10.6l-8.4,4.2l-4.2,10.6h-4.2l-4.2-8.4l-6.3-4.2l-10.6-2.1l-8.4,4.2l-4.2,6.3l-4.2,10.6
		l-2.1-12.7l-4.2-8.4l-8.4-6.3l-12.7-4.2l-12.7,2.1l-8.4,6.3l-6.3,6.3l-4.2,16.9l-2.1-10.6l-8.4-8.4l-8.4-2.1l-8.4,2.1l-8.4,6.3
		l-2.1,6.3l-4.2-2.1l-2.1-6.3l-6.3-4.2l-8.4-2.1h-6.3l-8.4-6.3l-16.9-16.9l-14.8-21.1l-8.4-21.1l-8.4-29.6l-4.2-29.6l-2.1-29.6V136z
		 M145,143.1c-10.5,0-19,8.5-19,19c0,10.5,8.5,19,19,19s19-8.5,19-19C164.1,151.6,155.5,143.1,145,143.1z M263,144.1
		c-10.5,0-19,8.5-19,19c0,10.5,8.5,19,19,19s19-8.5,19-19C282.1,152.6,273.5,144.1,263,144.1z"/>
</g>
<g id="Capa_6">
	<title>tzontli_6</title>
	<g id="Capa_13">
		<path class="st2" d="M66.2,311c39.4,13.1,85.4,19.7,138,19.7 M46.6,123.8c0-59.9,70.6-108.4,157.6-108.4 M46.6,123.8
			c-6.6,131.3,46,200.3,157.6,207 M125.3,291.3c-6.6,59.1,9.9,88.7,49.3,88.7h29.6 M342.1,311c-39.4,13.1-85.4,19.7-137.9,19.7
			 M361.8,123.7c0-59.9-70.6-108.4-157.6-108.4 M361.8,123.8c6.6,131.3-46,200.3-157.6,207 M283.1,291.3
			c6.6,59.1-9.8,88.7-49.3,88.7h-29.6"/>
		<path class="st2" d="M174.6,330.7c0-26.3,9.9-39.4,29.6-39.4 M233.7,330.7c0,26.3-9.9,39.4-29.6,39.4 M233.7,330.7
			c0-19.7,6.6-29.6,19.7-29.6 M154.9,301.1c-13.1,0-19.7,9.9-19.7,29.6 M273.1,330.7c0,19.7-6.6,29.6-19.7,29.6 M154.9,360.3
			c13.1,0,19.7-9.9,19.7-29.6 M95.8,320.8c0-13.1,6.6-19.7,19.7-19.7 M292.9,301.1c-13.1,0-19.7,9.9-19.7,29.6 M312.5,320.8
			c0,19.7-6.6,29.6-19.7,29.6 M115.4,350.4c13.2,0,19.8-6.6,19.8-19.7 M233.8,330.7c0-26.3-9.9-39.4-29.6-39.4 M174.7,330.7
			c0,26.3,9.9,39.4,29.6,39.4 M174.7,330.7c0-19.7-6.6-29.6-19.7-29.6 M253.5,301.1c13.1,0,19.7,9.9,19.7,29.6 M135.2,330.7
			c0,19.7,6.6,29.6,19.7,29.6 M253.5,360.3c-13.1,0-19.7-9.9-19.7-29.6 M312.5,320.8c0-13.1-6.6-19.7-19.7-19.7 M115.4,301.1
			c13.1,0,19.7,9.9,19.7,29.6 M95.8,320.8c0,19.7,6.6,29.6,19.7,29.6 M292.9,350.4c-13.1,0-19.7-6.6-19.7-19.7"/>
		<path class="st2" d="M164.8,163.2c0-10.9-8.7-19.7-19.6-19.8H145c-10.9,0-19.7,8.8-19.7,19.7c0,0,0,0,0,0l0,0
			c0,10.9,8.8,19.7,19.7,19.7c0,0,0,0,0,0l0,0C155.9,182.9,164.7,174.1,164.8,163.2L164.8,163.2L164.8,163.2"/>
		<path class="st2" d="M243.6,163.2c0-10.9,8.8-19.7,19.6-19.8h0.1c10.9,0,19.7,8.8,19.7,19.7c0,0,0,0,0,0l0,0
			c0,10.9-8.8,19.7-19.7,19.7c0,0,0,0,0,0l0,0C252.4,182.9,243.6,174,243.6,163.2C243.6,163.1,243.6,163.1,243.6,163.2L243.6,163.2"
			/>
	</g>
	<polyline class="st3" points="204.1,182.9 204.1,182.9 164.8,242 204.3,271.6 	"/>
	<path class="st3" d="M204.2,281.5c0-21.8,17.6-39.4,39.4-39.4l0,0l0,0"/>
	<polyline class="st3" points="204.1,182.9 204.1,182.9 243.5,242.1 204.1,271.6 	"/>
	<path class="st3" d="M204.2,281.5c0.1-21.8-17.5-39.5-39.3-39.5c0,0,0,0,0,0"/>
	<path class="st4" d="M95.8,173c27.2,0,49.2-22,49.2-49.2l0,0"/>
	<path class="st4" d="M95.8,173c0-27.2,22.1-49.2,49.2-49.2l0,0"/>
	<path class="st4" d="M312.5,173c-27.2,0-49.3-22-49.3-49.2l0,0"/>
	<path class="st4" d="M312.5,173c0-27.2-22.1-49.2-49.3-49.2l0,0"/>
</g>
</svg>
